<mxfile host="app.diagrams.net" modified="2023-05-30T18:57:25.973Z" agent="Mozilla/5.0 (Windows NT 10.0; Win64; x64; rv:109.0) Gecko/20100101 Firefox/113.0" etag="TJltExw7YWFUOOOU2dkY" version="21.2.3" type="github">
  <diagram name="Page-1" id="eN9hC_QPZdCwiutUW0lL">
    <mxGraphModel dx="3385" dy="2674" grid="1" gridSize="10" guides="1" tooltips="1" connect="1" arrows="1" fold="1" page="1" pageScale="1" pageWidth="827" pageHeight="1169" math="0" shadow="0">
      <root>
        <mxCell id="0" />
        <mxCell id="1" parent="0" />
        <mxCell id="OMwSk2iTK4QeCkCI8MPM-1" value="" style="shape=image;verticalLabelPosition=bottom;labelBackgroundColor=default;verticalAlign=top;aspect=fixed;imageAspect=0;image=data:image/png,iVBORw0KGgoAAAANSUhEUgAAANgAAAKoCAYAAAAVnTEFAAAgAElEQVR4Xuy9C3hVRbom/IZgENLtZXrU/rsZhYRLCAkXG8KtQcJFEjgKNgwcu/VAD6DQBEwfboqnFbRBGegGGy+ocBp+j3qYlmk8DgYEBc0jVzHhogSvQPuPKL8gDgGbkOypWmvV3rVq17rsnb2TffnW8+wn2WtV1a71Vb31ft9XX1VlBNgFzXXhwgW0adNG90h7j9K7i4rkk57yySCAmQ1PAEhPADi9daz6AwHMknCsBBrvBqPyk2tAJIARwHyZATQARcfwBDACGAEsjj4IAhgBjABGACMnhBcKSIWLToWLt01LDEYM5oVd8rL6kJDTAEcAI4D56D6kQXgJiQDmISFSsRJTxYq3Chfv8onBiMG8BmdSEX1IyJHBamtrtaFSPsqkJCQBkoCHBIjBiMF8gYRU6OhU6IgB9ty9GcFfuufZEPlRA0TXAPG2Aah8UwLN1T8jAhgH1z33/CzYZnf99n382zsN2LTpfhw8uBQPPxxo1P9uXbS5BJQoHXT+goe0VckIXDbvs0URDQ31qK+vN76Kvw0NDQiwewH217guW+nZ9waeln3OX7oULLvOev7yxo2230t3+XvRfEy8iBxg/3BHNxw4egE357XG/MeOGACrqzuM//bkdayNG/Dnmd/gn1ZciwbW4P/2z9/iH//7D1jjBrDh/lqM/f2V7H4D/vq7S/iHhzONht/8e6D92E+D9f/iP8Zo3yXdG5gDLPeN18NkM2TDBrw1YYJWZm7PBr7wAirvvlub7422bfHKpk0EsBgs1/LNYIK9XnvnHG7/50+waXkORvS9ElMeOGqA7MiRIygoKMCiRRkYO/ZwRP/fddcnOHDgAFa+0w67niwigGlUGg6wxxcvssnm+d69IUA0df/+iJ4NWL8e706ciCksn0FuTPNvYAPhur5FIIDFTqWMGmAb//uNGF50Jab/7uOYAeyPO2/Enqf7EsAcABZLBuu/bh12TZqklfVrN9yA1zZvJgZrKgYL2l7Mp/Ef75zF6Nmf4X8s+SmG9c7CJaa/z378fxsgq2cjYCCQYf1lIyJLX89GR36f/+Xf+ShZx1V/617ODS3x6aefGgy2/K222Le6PwHMAWBTJ0/0MgXsz5mazhesi49hjxm2GrO/rP+5rcbbhKv35v8NeGzxYgJYjFb0+2IwATAu/L+duoh9H5xHYftM/KerGgyA3f+Hrw2AVVVV2RqO217c5jIalDVevdGw3BDnDcr/NmDkyJFBgD3+xv+D99cMJIBpAHb/AwuQ0+6mcBts2DDk5uRoZfbJJ5+gQ4cOYc/4QHf40EF0LexuAo4PfJZDmA98424rxdZtbxCDNQWDCXBxsFxmHqZX3z6L//rA3/DCwv+M4p6ZBsDq2OeR1RcMkF34uzliXm7IYJ7FKtxWOhTfnfsWV119DZ5fvxFF/Qdxx5XJZIzV8tteEQTY4i0/xsF/HUQAcwDYY0sW2+2s557DEAtgLabZxdawGvj4o4/RsVNHqM8uPwMcrK5C1249cOWM0LQLL+HblQ0YfzsBLFZONU8GMwA29WYDXNyFe/LLi3jvw/PIvykD1/6w3gRYXR0eW/N3A2D/5yIfEbkaEsCv7hyLiv/1arDl2/6Xm7Bz3ycMfFxlZJ/6DBTeFALYI//rP+PI/zuEAKYD2P0PIKd9u4gY7NixY+jcuXMwDycpvsURZ6uDVe+joHtP43/zXojJ7hg5FDt37iQGawoG27ZhCdY/9S+euv/EGb/H8AkLsGf3nqBaOHPmTFRXVwfz3sCM5z//+V+Zusj0fcsWGDN6dJDBCGAhMasj6Lx583DPvfe6t4OHzSVsLz74cVWdaxrc7uJzZKFnDVj0yCMEsFjZYF6xiJFs3fZtLWsoNhoaDMXUwOeeeQILH5xtdIofXnUN1v+PbeiY3914dpnZYZzFijq2CgLsoU3XMhtsgCeY0zHBwoUL0SE3NyIG+/DDD5Gfnw+ZuXgBXO7VB/ahsGdRkLlMJxRX74FfjCzG1q1b01HMMX9nTxVR/cUJS/+GDfP/i3H7+0umR5A1izGXYngMjVEROMSM6F2VO/HI72bjp0w1XLdhO3780xsZsEKeRQ7E/p2vDALswY1X4+MNI0hF1KiIs2fPxvLly22yed7DBvvggw+Q37UrMhX7rHZVAAcP7EUBA9hV97WwlXlqWT3GjSpGZWUlqYhNoSKqvf2/PnYCf3nA9Ga99957looR8hae+/Ycyn9bDu7BEteYMWMwZfIUw4v42Wef4t///d/BVR6ulowbNy4IsAf+8kN8+pdSApgDwDp36hTOYEOHIlfDbDzh4cOHkV9QaOQx1ELJW1i1bxcKftbPZoMJFhtbegt27dpFAGsOgI39/efY+C/tDeGfu2CqeVy1MMLaGIONvX0o9rz7Nrp07Y6jHxw00nEGe3jp8/jxT9ph0fwpOLD3Hbx95KKhSg4pbB0E2LwNbXB84z+kBcAWLVrEYjcfdlRJVBusvLwcZcymtV3C5rKmQ8QclzzXZdpWIZsraGtZc17mdzb/xRrPsMmYI2vho49i7969BLDmANgdj3yKvz5k2gJnzvPJZXN05H+XP/4IVix7BP+xbT92M5A9tnCOtgM9sPg5DPuHuw1wDu8RAticl1rj5Kbb0gZg4kV1QFMBNmvWLBQwdU+9BhcXo2PHjnbcsW/clhKueP6Qt4/512Syqj3voFsRmzKxvou/fLAce+sA7H/PHnoVK7e104iSquVHbIONXvgJXl1oTl5yNUJMIv/rn/+M9Sy+bc7sORg2fBiLSVyE3bt3G+nat2+PX//618b/N954E9vzvrUxWvJr/PjxQQb753/LglOwLy/P65I7aqI3mO593OrPAfbEE0/YRMBtsFsGD0Ynpjqqc12Xng654luX2ee6zqxoQPWet9G19yDcMCfTVubxJXUYN7wv9r//vu1+osvTq280V/0jBthtDx3Da4+Ycytfnr3MRkAzNIo7LwSTffG3ExjePzSqTvinmZgxf5mZTgqd4t9v69UmCLDy9Vfgf2++QysrPwDzEnIyPZ87d67t8I2ZM2agsFu3sFcYOGgQ8vLyjPt8zOLDlojKqDqwH4U9elm2l8lcgsmqdr+FgqJiU72XPIj8+/hb+xHAYuWmj/Twh5H/UoPXf2826N++uRz0HnJ7ynC9s8njp1Y8gmefYOtQpOvnQ27D7Eeex5XZVxl5TG9iAHf0CQFs5roW+Or1cVEDjDOAsG2aa8RyArFan0gZrGz6dJQzT6JbbGEovpDbU+bcljrPZcYb8rkvM+KG21win1grtojFIhKDxeZ0oYgZbMSCD7F1Sb7Rj3bs2KHEFgYYG32MB1jcHL+4asgb8euvv8bp06eN748//ritD8oq4oy1wOmt47V91C9gRMdVGcCLvfyWL8ppbHoZYH5ssLKpU9GtV6+w1+g/YIDhihcRGgYAWSrOStXv7UHhzX2C3kOeRthaB3dtR36foRaDmfNf4powghisse0rZBkxwG6dfxhvLDVdv598WcfmvYAPDx/ExPHD8ZO2N+HYh6bn8L/NeBATp/+LFRYFPFw+Abt3voYV/7Yb3bp1R5usFrgyKwM92mfhzDff4G9ffIE/vXYBa/+lX9oALBIvIgfYKmZzyRe3wfr264euzBXfcrpdbOf/xCaT39uNgpv74ppy+1zX6T/U4+RHh5CT1x0PrT8WzHjywo+wYuI1pCIyiTQbwIbOPYQ3l5m2QM0XdbjMAPbgP0/Bjjf+A526dMMNP7kJ3XsNRMnou3GJ22V81GTDafX+SiyYVoKRd9yN8f/4T+j55f+HDJanRdVu/J2pLX9no/Petj9H+bMPpAXAImXUssmTmdcvfDFqUZ8+KGBR8XyCn1+cuURsYfW+d1HQa0CQtfj9rJYZyGQ+j8rnnkIOizdsvduc77rYrz++Zisb8iZMwqIZv8bTbMWzfMWqwzm9d6qW78lgfp0LPJRnE1tmLq85EvYCFyoP2xFlzWLhO7//6iu0/vGPcfHUKZxmDPYVS3OGfc6yz12yvmK1iN8G8FK9kq2BI5H/nj0sDtRaGiTmuwwbjNtjDHltsrNx3fXXo+XvHkKALUdpzWJDL7J2OHfuHC6yfOeYcNqPuQM7hpTgNzPvIYDFYh7MKxZx2bJlrhOiohUyMjLwzgcXjRFU9hSaMYfcw8gmnP9TJtps+Xe0f3Q2sktLkcFttM8/R21FBT5lIPv/WWHfsM9ttbVeA7zjc15fcXE7LNmvSOR//nvmwJCi4rkrvtCY6zLjDFu1bIHDL/0ZbefPw7VM/g2ZLdGi/jLOMvlzkJ1ljXSaCeydu+7C8mefTXbRJUT9fTGYbCtwIMmXmM/i9988dCG4ctkAmgQu7mXs/JMrkFl2J7qcOIbMX/wCGcxAD7z7Lur/5/9kUR8fGI3LAcY/0xQWi5TBOLj8dk7+Pn7LF+/eVOnViA83+eMeazaZVZLbWdXMFV/YZwh+PNec65rZ4yiGbShDr6++RFbvIlT96pfo+eJLuLR/H0599JEBMK5BnOrZE2U0DxaTM8ojBhhvKLmRZYD95S9/CbqRdcMHX5tUf+ut6MjUFicG4yz2LQEsCHhdSJWT/L+9wFzu0vquqnffREHfIUEG+0GrTHyX+1PUszV8bgz2bWYmpont3ayGbKoBxS/tJEt9IgaY2wgqwOYmpAM/+Qmu/fJLXPejH9lssFMsEx89xWdmIxlM1MHNUyfXM1EbLBIG28mmTeR5LnkOjLfNTWxrgR8OH44zbMrk6quv1tpg3zBN5BsGsHK2iDYZ5JPogIwIYOrIyb/LDCZH0Ote/NprrsGxf/onBF5/HW1YAq648G0yL7DPefbhRjZnr+/YZ3YMACZPPHs1RDIAzEv+35znkTUiap656Su3omv/W417XJxXtc7E6bvH48ymv6J1i5Drnjs4uNXLnUwX2P2z3btjNqmITa8iigbWMRV/toFtgul23fhfbkT9O2/j2/vvRyuWUDTxRQtk/8cC2qwYehG9otZFfZMJYE7yl22wLx6/zABWgfz+I5DzYJbxmqM7fY1hWVuQM2uSIX9x/d2S/3cMXPxTw+JDV7/4IjFYLLyIXqFScgeVGUsFEn/mxWBZWVnIZpX+mHn6ji9dagCMm+VcGeEgE0C7nwCmtcG85H/qXJ0ttvCQAbASW1Nlt2qBMxMn4CBjsZbsCd9Iu461Hf9wcPEr649PkZu+qWIRdTaA0wj609vNeTBbTJwR4Gvul87nYn7e/Xr8vNv1yN5XgYYDb+GKT8w9O+o69EDtTVfhd8qe6JEyjG4ezA+LJQODcVk4gYzf78eiOoJ70hu+eVPu8tWbhVUVFA3EkX2VyGee25aHDuF7lre+sBAfd+mCbn1vwVtvvk5bZzcXwMJazLrhNrrq8sSrQ6sTs37tsHjVJ9IBQk3vZ3BwA55TeyXq+zrVV72fLPX3dHKoXkM3AfjxIja2w3k1gA5gPI9XR03UBks2+ce7fZOtfE+AeXXoRHvhVANYssk/0fpDc9eHAGa1QKIyGAFML4Fkaa8Mr1hEvw2cKOnkWEReJzkekT9LhfjERJE11cNbAinNYKqDw80OS5YRkZwWpgSSpb0IYKQieg/DSdShE20ASjmACY+hLGg5HtGJxZJlREy0DkT1cWdUAhgxGDGYRgKxGnDTDmCC4dQo+1gJlEb05LKR4t1eBDBiMGKwpmawnXMzUCwd5DFnRwDLBru3g8wAPP/mUe554skYajyianfp7LDY1Wcn5mYUw3YOypwdqF1UZF/+cGItSttNQUFQtiewtrQdpmwJl3PJmuOomGwdHxuWj6ffiXL2m0+w3wlIDXVibSnYT2DN8QqI7LDyd95Si5Uj+KIhM39Yndld83fhr15KtS9c2IqHs0vscgiWGX4Ubuzkr++nzVV+GIMZ4ILcIcyGr5nvHzCJDjDeyRat+wKT2Ealoqlj1wC8s27GqMAyiDHJkGndFgRWho5m4p3/SYzDkZpcVKijF6vf8CmXsGbb9GD9RLfR5+MAW4xjJT0wv0L8rgBsiQ1gIn/14bbYFqxPeJ1NINZgvvUehnxOv4xSdhTSaoa6cIjYO7YJsO02OahlyjliJ/9EBhgXqiXA6xoRTUwAswMMOIFnhk9B1pptFpPwzv8kcivK8KnxNwRGo3s4AswpHwfYJlwxh+1dLzQHoy1rUIAjyFstGCyU/+jwFeiybaU1CGgAxuq81uwMRp1jAjClzLQDmKFS1Mw31AynEcVUOyw9RlJJtpZnoEQ6m0Colbb0JWtw3Br9tOXvnIuMpUdQsmULtlhla/PL6XgrSeXy9Ou+6BtsOzHZvJBtaWaWuwZrjkzBF30XYuGetu71cdGKnUdcXWcFuHy2j7G0AN75nzSZy2CU3Aq7Cu4EMMd8JsDG7LgCxZtHGe3Hy52G+Rj3ytIgSAwGsX635pnhWNtlm/W7xGBqU8eKUW0qotkoqw193xkAecFOyZlqaR7T03OfRMbiHBw3VBpJpQQDjNXg5sDso/xitiW3UK84kKz8vD6nXx5r1o//XvGRoOpjq8fSPCzs+0UYNBYuPB8q12Lqviyd8CbGSqCmPaMymB1gNlBJWkNQ7XIAmHM+C2CBMdhs/DZnRs4+q9n2XCEWkvNfqHkGY3+bZal7OhtsTkheTJrRMZhqg9nLTAsGk2MRT64fjS7H5qB2yUDt2F25IBvLOx/FqxNvNJ9XLkB2RSmOdl6OmVgVvM/TVZTWorQi28ZqRp77tjiWb5S3vDOOvjoR/Bd4OTIrBvOXVtjSiXpsAWtQVr+ff23fumBu37NYtudaTGBbuRk1P7keo9lZdj//+ddxiE1kOxhnV6C0dglkKQqZLBl4Euv5j696FaYY1e+h+q2y5GAK2y1f6DexYDQ+mzYHx2Z+hmmvMms6+Fv+8pt11tRJkpu9Xk40r8rBoUwXLSEVHtmdHB42WJAphEvKYpgdzC2yaVjIKyVssFGbLYYLurBCIouIIVVGNVTEEJNCqgdn1L5frLO1zcO3nMeit38QcmpI77nOOmkyvgxmOiEKjzMbDKb3UHUWqp7CMCeH5f3T5/vcVBEDzKZisihlajbGcU2EewAtBnP93c/DWVfSHrgwo2MwxcmhlJkWDKbuyeHqReQqn9Sx9SqiqW4w/QIsdp2pciGVz9PG0wHHyl9kqYiGjThqs3M9NCpicwNM9iLKanKwg6lqokZFdM+XixUCYIaKuhR5hms+5KgYtj2knocDJhdPhqm1dlU3JgBzUJ+D9YnBJjNOrBe7AVT/C07layea3ebBvJ0cJSgp2YICy60fuZNDYib2Lo5ODvtEXXD+R3VycHGEASw47zMHCxf+wLDDYtcAbvNg+6TOLzeUMhUSBjAZNLp8O1BXbDGYrf0FwOajpp0AnZnAfN/T1hTMDjDviN2lztLIGktsAGYvMy0ZTLx07DpcZIj3NQKpTKdkinRfDp4+0c8T87JHErq9vCofBLyY+PbOkCzvyzeat45es09Ixu8F9FEDzNdujzhQZGyrTxQA48U5RdITwKLt0M5t+fTRjZiel3qA8UUAUqK0ikUkgIVaPn4DqKyCEsAaDzCLTY5uvBN5CWKkOsUiuq1o9tp1Sh25ou+gDqO+MbHOtjhQ4xhtzB6eV3gfzfpwG0+Jg2QV9xdTKHsSJUfVYAGY8NAn1VaHFHgQvXy82TRkQyY+gBsPMEseiSRQ3aF1XvsjNi3Awh0KphhDnjvuNW3DB6yga7u9JiY05BxZVCQAppStxBQaP6OdyJa9hhaQbZE3doAJb3NYcLFHJFCkKlaypyeASQNE05wnpo/0cASYcOEHgzKUQFubBsEZLDwOUo4p9A+wzchbcwQ1VhiXLXhXF33iZjP7IKVEGqBjyZCNB5jcwPseZvNTwBy2SGE5nxGVRkBVnbjPtlzCuwUiaYBoGIyXn4gAE3OHx/OWBsPY7NIyATusdhFGGCpirBiMlzPKCr1ahiI5Ot5lwljULZL2imWHTjTGiz3AlBhBY12YbYLaVGsOl8vrkZoGYPxX3PbkaDqAhdtJZnC0c0xgeymO0x1gatma+D9fKqIJVPG7G++sCS4/CasLB5yYl7QG1casxvDuDUm0q1Sj90WU4wc1sYQ8JnHaZ6O1sYoOIY9+5OuaRt0bkScW+yF67Y3o9bzRlYM+VtEs1/kZjxOV4z1D9ZDz+Iz/s2Ix7TGFTuWI+6WoEDGWVgxqWMyqttzGSyyZS4g9gymhVJzBeEyivMKZq4ty7KIfAUaicjipiF4Mxp0Kfp0dkdTHrgJFaIMJ4TjZPV42mE6di4DBBrPf52rqlEu3o8dvPjOjPZzqEqP1hLHuD82pgjYJwOwqoqkG1TWDDZbUALOWAb0yTto+QFoa5OhF1MX/RQiw4JYEzLoWS4nCvYh2zyOpiOYw0TQAY8NgyMkxB3PmLEedFH0f6xHLLVTKz76IfliscQwWboOZDqFQ0G3QTW8Tjp95MPeYQqO4iAHGbJ6t5cguucK2RswWJ8qKLVmzBgWvAGUsjJ8AFiuAWR3Af4czA1AvrYhfKI1XLKLXpjfxBZif4SR5jHint/HfH8wSUjV94xnMB8DCR7rj2HjndTE5ZFrXwI0FmJsqKX4vVTsEASa2gG8SgOkaLZ4dlADmzZLxlH8qM1KkA1BaAEwIRey/4aUiEoOFdyMCpPugFdGCy2QfgXRuev5OkQDMC2TU4aLrcJEyQLKnT0sG04FHBxg6TyzUvWlAiW5AIYC5OGkIYAQwb2vW3SmSNgDzOu3SaYT2M2/mpxGIAaJjgKRXERsdi+indzVxGqdYRDnO0G/Mod90TfyK9HNJIgFiMBcVUbShH6+jV3sTg6Upg6n7IgoxJHOH8LMeTAWN2/sSwFI30iLeKmjaMpjqSSSApSfDEMB8qHCqkPwwWCQA8+vWd+uiyawR8Pei+kc3AKUFgwkPIheRfDazrPp5daBIVEpdU3iVr+ah9NF16HgzUqTlE8DYttl+RmgCmLXLlZc3JwqNw4/8k3UASkmACZVObRS3uTA/jBEJ4yVrh4h0hKb0pgTSKhbRL8Bk24oAlhoqWaIBPq0ZLFKARZNeNLgfAMudg9KnBuAJYBEewCfURAJAagAg3oxHACOA+XJb0IAS3YCSkYqxiFwUfuIRRTqxZ6KvnmaVHWkev2VTutSSQNozmLCrIjmAj6uJkaR38zLFW0Wh8t29fPGWDwGMSThSwESangDmzUqpqoKmHcBkT6Bo9mgA42drN/IKJv75XcRglgQiHeEi2XyUAJa+DEMAS1CAccA3zWks3p2fVFBvGUU6QMcqfdqoiHKYlKreRcNgBLDo3NbxZoxEK58AZrVINDYVMZgzyGLFAIkGmEjrkzYAE4JxOqs5GoA1zXFH3uoPqYjeMmouwBPAGsFgBDBiMCEBiqa3JEEM1rwTr5GqWMmePi0ZzGkuTF7t7KV0yCOWH/WyuVSUZO+gyV7/tIpF5I3ldlZztHsgRpvPC8T0PPklQAwmzbM1xivoxWLEYOnp1ieAEcB80QQNENENEGkFMLfJ5sZOHMebweYveEjbwhmBy+b9QAANDfWor683voq/DQ0NCLB7AfbXuC5b6dn3Bp6Wfc5fuhQsu856/vLGjbbfI4ARwGwS8NobUbdLVGNURJ3jRK5QYzsoB1juG6+HtfKQDRvw1oQJ2tZ3ezbwhRdQeffd2nxvtG2LVzZtIoC1aXywMjGYpCI2dl4rnscdcYA9vniRrdM/37s3BIim7t8f0bMB69fj3YkTMYXlM8gtA+xvAOv6FoEAFruNVglgSQSwWDJY/3XrsGvSJC2DvXbDDXht82ZiMGIwZ73YS0VUVTqhwnnZUuIXnVS+eJ0nxhls6uSJ7oaA+pTZZexwj+DHsMcMW43ZX9b/3FbjzBUINBh2G7//2OLFBDC2WoJrNH4viuRgkvKz8WiiAuz+BxYgp91N4TbYsGHIzcnR9oNPPvkEHTp0CHvG8ITDhw6ia2F3E3DsO//wq579M+62Umzd9gYxGAHMP4Pp9qfX7dTbWIA5OTsa6+TgAHtsyWK7nfXccxhiAazFNLssGlYDH3/0MTp26gj12eVngIPVVejarQeunMGML+n6dmUDxt9OAGtsewmRpo0NlvQAu/8B5LRvFxGDHTt2DJ07dw7m4STFCMtgq4NV76Oge0/jf/NeiMnuGDkUO3fuJAYjBvPPYHJKEXPotNe8HxZzG+HicWDfvHnzcM+997qbBB42l7C9uM3F58y4esjtLj5HFnrWgEWPPEIAi5UNlk77Iore6RaPyNPEIrYwFmXIaFq4cCE65OZGxGAffvgh8vPzITOXsLOqD+xDYc+iIHPVM1c9ZzHOZr8YWYytW7e6g5me+pJA2qiIQhpO0Ryxjo6P9XFHs2fPxvLlyyOywT744APkd+2KTMU+q10VwMEDe1HAAHbVfS1sZZ5aVo9xo4pRWVlJKiKpiJGriMkMsM6dOoUz2NChyNUwG094+PBh5BcUGnkMtVDyFlbt24WCn/Wz2WCCxcaW3oJdu3YRwAhgjQMYz607zKGxNpioldt5Yl6/odp45eXlKJs50/7CwuYywBOa45LnukzbKmRzBW0ta87L/M7mvxi6DJuMxSIufPRR7N27lwBGAIsPwGTgOf2CHzeuF8BktVX9HbX8WbNmoYCpe+o1uLgYHTt2tN0WNpdwxZt2l5mEz3NxJqva8w66FQ0Kfhf3uR029tYB2P+ePfTKz/vKlaD0pjTS2gZzYrBYAcyrfBUs8opqHcCeeOIJW5bn2TzYLYMHoxNTHdW5rktPh1zxrcvsc11nVjSges/b6Np7EG6Yk2kr8/iSOowb3hf733+fGIwYLLEZTADMuZbOT9TDJWbOmIHCbt3CMgwcNAh5eXnGfe4B5OwlojKqDuxHYY9elu1lMpdgsqrdb6GgqNjwHMoeRP59/K39CGCxctMzvdsKkrG3XbJTvC4Wkb+hU9tTs84AACAASURBVLiU+r6R2kheINKVHwmDlU2fjnLmSXSLLQzFF3J7ypzbUue5zHhDPvdlxihym0vkE2vFFrFYRGIwikV07dPJBDDdZjsqIMumTkW3Xr3C3rn/gAGGK15EaBgANGwtoPq9PSi8uU/Qe8jTCFvr4K7tyO8z1GIwc/5LXBNGEIPFimDIBnM54TKe67siZUgOsFXM5pIvboP17dcPXZkrvuV0O/bO/ynAALYbBTf3xTXl9rmu03+ox8mPDiEnrzseWn8smPHkhR9hxcRrSEVkEiGAeehkjWUwL0dHrBrA6TXCGGzyZOb1KwpLXtSnDwpYVHy9RUGcuURsYfW+d1HQa0CQtfj9rJYZyGQ+j8rnnkIOizdsvduc77rYrz++HjkSeRMmYdGMX+NptuJZvpr6fSNVuRM1fcoymNhjQxa8LuBXAEl3YmU8Gcxvh3AaKNT8PJRqz549ZkyhNMdl2GDcHmPIa5Odjeuuvx4tf/cQAmw5Smu2sPLiV1/h3LlzuMjynWOFth9zB3YMKcFvZt5DAIuFFzFVYxF571DPaeYgEjGCcqygU9xgrOMJvUCle+53n5CMjAyc/545MKSoeO6KLzTmusw4w1YtW+DwS39G2/nzcG1pKRoyW6JF/WWcragwQHaWgew0q8Q7d92F5c8+G011KY8igbRkMJ0nMZEZTHaCcCDJl3ACG/fvsWaTWQJuZ1UzV3xhnyH48Vxzrmtmj6MYtqEMvb76Elm9i1D1q1+i54sv4dL+fTj10UcGwM6ydKd69kQZzYPRima34dJNRUxmgPF3lkEmA+zbC8zlLq3vqnr3TRT0HRJksB+0ysR3uT9FPdumzY3Bvs3MxDSxvZslZLLB3Mk57bYM0AFMiMgvwIR95seN7qUbRdtBVTvQjcF27thh7athznPJc2AciDexrQV+OHw4zpw+jauvvlprg33DmPAbBrDyujqywWJhg6XqRHMqAkxlLv5dZrBvzl8Oegy5zVVduRVd+99q3OMexKtaZ+L03eNxZtNf0bpFyHXPHRy1DE5n2OcCu3+2e3fMJhWRVMRIVcRkZzABMF3wjWqDffH4ZQawCuT3H4GcB7OMVx/d6WsMy9qCnFmT0EoS3t85sNjnOwYu/qkZPx6rX3yRGIwYzBliqcpgDpFthl126lydLbbwkAGwEpuQslu1wJmJE3CQsVhL9oRvpF3H8vIPBxe/sv74FLnpKRbR2+hU3fRODOZma8Vrn0O/NpvOBnNisH4sqiO4J73hmzf3qZev3iysqqBoII7sq0Q+W/Hc8tAhfM/AVV9YiI+7dEG3vrfgrTdfp62zCWBNAzAn8EXrtPAClnge6Uaosj3m5zeaqv5+6sLTpGp90moeLBoGa26AqV5Dtw7rpD7q8qRqh3aST3O9LwHMahG3sKh4bMPmNbI3V4dItA6a7PVJW4CpzEQA81a5Y7FXe7IDJtL6p+wZzVwQOidHpPGIohyxl6IX89BzkoAsgbRjMKdt27zWZ8V6n0OvbkgqYmowKgHs4YeNliSApUaHjlSFi3d6ApgFMDExrYs71AGQGIYAKUuAgn0tabjt7Ou29opUxNhsAhNvxki08onBiMG8zEHjOTF2dIxNACOAEcA0EojVgJJWAFP35FC3tvZanu+2FbZXL41VgyWaCkT1MSVANpjSE9RFl15ODtXR4Q8wOzE3YzNGBZahKBg8Gro3GPL/7BdOrEVpuynYIuo6ZwcCy9pjbWk7TAneDL1IyZrjqJjMz23eifKMYsgba4ee8fT8d4phP/wIkPOLeg42ig9PP+zpo9g23dxB2HxuvpeZXr0XXh8jifE+oRxyk/iTZyhHsqRPKwaTG1Q95bL5AcY77VLkHa8Axwyvz76Hs1EMqVNyALKzvlZXTEboOPQTBgAPl9di5Yg21iua92rmB2D253BAXKh5BmO7fIb5Bkjk52pes8it5RnYPsa5PPtvcIBtwpjASgmAsvTD/08WwDi9BTGYIpmEA5gCHm2D6QBm3Vux8U7kyQsEd85FxtI8HDfAqAHYhRq8PPa3HK0M0NJzLYgZ4Dkgf5tlgdsPgxHAeJcjBlN29vUbk+hvxI1ERbTUspI1Biiu061H0nT+E2tLMQ2rsfHO65Ql7i6qKGt4JwZrb5Vnqp6ySrYVD2dvt9RCApjKZI4Mlk77IspCcTqn2WsvRK/ndsFXYkF2ic02Mp/fhy21SzAQ/HkFSo3/zatyQTZKhDE17GkcfXUibhSFnlyP0ewMvlXSvZPrR2MmVuHVicFUoiSpbF09RB2MXw2mvcl3efZ6y2WY7xX+3vdtqcUS8aLuGmPKPE1LBtNNNvtd4Kg7EdO5N0TCYPZS/Npg0THYCTwzfAqy1mwz7D3ZfnJksK3lyC65AjvCbDZRbztjkg1myoUAFoGKyAXWlABrc/plu1MjljYYB8z2MZZXz8UGM2y5Ixi2ZQu2W+rrTeCOkCeRWyF5EW11IyeHGHYIYAkCMM4c7V4ZZzklQl7EpXnCFc+azMWL+O+3y250H17EC042lZn3lXGh3+Us2Y7NE8zZIbyIjPPmZmDzqNB3I03N/CBgicGIwWyH8SWCiig6clBZVOeNHDx8/ubB7PNWQgU1Afy5Mq+lnzezz2OZQAzOzwXZzVQ51Xk5451sacJV4lRc0EkMFiGDCTVRt5e9m2Xuz+sYKiHx0stufW8fROLVv3mClQlgBDBvtLAUBBh3MdFEsyQfNy+i7MhwEil3dKQfgzUPAzi1QbIAPu0ZTKfy+VndTACLbkRPdsBEWn8CmOV6lwFDAAvvRsnCGJECIN7pCWAEMLLBNBKI1YCSdgDTndOs2lReDObHTlPbLFYNFu8Rl8o3JRCr9krbfRG5EKONR+R5I4tJ9EUSlCgFJUAMFoWKSAzmjYRYMUCyMyoBjADmjZYYqkzJDphI65/SAOOhN9ye0l3qXJjqdveyw7yekw1G82a8DxDA2K5SuoljLwD52WJABhmpTO5EmaryIYARwEhF1EggVoAngBHACGAEsOjnJfzYYDqvIKmI9l4XqxE9UidBsqcnBnM4XYUARgCLxfo0AlgjACa8lE4nspCTQ+zT6K2FpipDEsAIYN69n+bBPGWUluvB/M6DOUVmuKmJfrcYEC2TqiN0sttI8a5/SscicuHpzmnm9+WzmkU69RxmP/GGftJ4Dn+UIGUlQCqiyxGyxGChfk8MHN1EOQGMAOaLPQhgBDCbBGQbSRWN05ow1Rvoh8Gc7Df1N6mDRtdB420jxbv8tGQw3aY3OjARwEhF9EXvLl5WApi0bZt6wiUBjABGAHOQgB8VUWYyXXQ8AYwARgCLI8Dc7CvZpvIKq+LlkA1GNpjWSdBYBMfbiPQqXxfs67TxqO4QdCfwqIDxAhkBjACWFgBTPYjycUQEMGcQ0AAR3QCRdk4OApjZUQgw0QHGS2NSn6cdwGQBeDk5/NpgbunE71GHbpoOHSkA4p0+bWMRuWBjFY/Iy6KYRL/WenqlIwZzmQeLhMG8WIwYLE0ZLMAu3aunSodw2jKAv3MsVUQCmL0XpUr/8cu3tB5MIyk/AHMCjk6gfiem/TQaddDUYDxSEX2ccKkDDgEsNQAQdydHuquIgqHEzr5+g34JYAQwWQKkIjqoiAQwPworzZt5SYkApkjIaW/6xjBYpF5Ht0YjGyw1GDJtbTACGB3O0BQDHAFM2TqbGEzf7YhRo2NUAhgBzMu8MJ4TwAhgNgm4LbhUJ5nl44uc5rLU+04dzu/yFq9eTR06ug4db7d7pOWnbSyiHIcoxxE6xRRGEmsYSVovoNHz5JYAqYg+VESdd9CNYfxOTDeFkR3piEvpTQnESoMggBHAfFFErDpcugGYAKY5gM+PJ7GpGWz+goe0fTMjcNm8z2K2GxrqUV9fb3wVfxsaGhBg9wLsr3FdttKz7w08Lfucv3QpWHad9fzljRu1Nq0vNMaQAZIdkGkJMN2qZvkQ9EQFWO4br4f1tyEbNuCtCRO0/dDt2cAXXkDl3Xdr873Rti1e2bSJANam8ccvEcDiwGCR2my6Xq4yJGewxxcvsiV9vndvCBBN3b8/omcD1q/HuxMnYgrLZ5BbBtjfANb1LQIBjGwwT03Fz76IvBDBZrFksHgBLJYM1n/dOuyaNEkrx9duuAGvbd5MDEYM5owzdd9COaXX3vR+5sK8jH6/82Z+bQzOYFMnT/QcWGwJmF3G19OKj2GPGbYas7+s/7mtxpkrEGgw7DZ+/7HFiwlgF2ITSpbyKqJgE6eeKQ58kAGRiAC7/4EFyGl3U7gNNmwYcnNytK/3ySefoEOHDmHPGJ5w+NBBdC3sbgKOfecfftWzf8bdVoqt294gBiMGi47BVDZTVbpEBdhjSxbb7aznnsMQC2Atptll0bAa+Pijj9GxU0eozy4/AxysrkLXbj1w5QxmfEnXtysbMP52ApiXhqL2vLRdrpIyDHb/A8hp3y4iBjt27Bg6d+4czMNJiu/AwtnqYNX7KOje0/jfvBdisjtGDsXOnTuJwYjBGsdgui20VTaTf0FmNj8jXKTp5d9Sy583bx7uufde5xfmTzxsLmF7cZuLz5lx9ZDbXXyOLPSsAYseeYQAFisbrLa2VrurlHtLJtdTP+c0xzoekUsoljGJCxcuRIfc3IgY7MMPP0R+fj5k5hJ2VvWBfSjsWRRkrnrmqucsxtnsFyOLsXXr1uRq5AStbVo7OZwYzInFImWkSNO7Mdjs2bOxfPnyiGywDz74APlduyJTsc9qVwVw8MBeFDCAXXVfC1uZp5bVY9yoYlRWVpKKSCpifFTERAVY506dwhls6FDkapiNJzx8+DDyCwqNPIZaKHkLq/btQsHP+tlsMMFiY0tvwa5duwhgBLCmBZgMvMbaYJEed1ReXo6ymTPtLyxsLgM8oTkuea7LtK1CNlfQ1rLmvMzvbP6LocuwyVgs4sJHH8XevXsJYASwxAaYGyDlHYfVw9d5PhXAs2bNQgFT99RrcHExOnbsaLstbC7hijftLjMJn+fiTFa15x10KxoU/C7uczts7K0DsP89e+iVnwHFTcV1binzSaqWTzaYtfGoyihec2F+O4R8/lgbaUR0OhhQdEQdwJ544glbP32ezYPdMngwOjHVUZ3ruvR0yBXfusw+13VmRQOq97yNrr0H4YY5mbYyjy+pw7jhfbH//feJwYjBkoPBvEZv3XM5NpI/nzljBgq7dQtLOnDQIOTl5Rn3uQeQs5eIyqg6sB+FPXpZtpfJXILJqna/hYKiYsNzKHsQ+ffxt/YjgMXKTZ/qO/sKNU3XiSP1IoqyeD6/DObESJEyWNn06ShnnkS32MJQfCG3p8y5LXWey4w35HNfZowit7lEPrFWbBGLRSQGo1hEV2JwC/YVGd0Of4iViugHYH5ssLKpU9GtV6+wd+4/YIDhihcRGgYADVsLqH5vDwpv7hP0HvI0wtY6uGs78vsMtRjMnP8S14QRxGCNHUCFLMkGczgfrCkApgOWEyA5wFYxm0u+uA3Wt18/dGWu+JbT7dg7/6cAA9huFNzcF9eU2+e6Tv+hHic/OoScvO54aP2xYMaTF36EFROvIRWRSYQA5mHYJDqDedllagOXTZ7MvH5FYdmK+vRBAYuKr7coiDOXiC2s3vcuCnoNCLIWv5/VMgOZzOdR+dxTyGHxhq13m/NdF/v1x9cjRyJvwiQsmvFrPM1WPMtXrDqc03unavlpy2DqmjDewDy0Sbd8Re0U8j6KXkBxYiSvfF77Oqr5eSjVnj17zJhCaY7LsMG4PcaQ1yY7G9ddfz1a/u4hBNhylNZsYeXFr77CuXPncJHlO8cKbT/mDuwYUoLfzLyHABYLL2K6xiKKfRF5L+L/80uNHYzFHoleQPJ6LoPeLW1GRgbOf88cGFJUPHfFFxpzXWacYauWLXD4pT+j7fx5uLa0FA2ZLdGi/jLOVlQYIDvLQHaa/cg7d92F5c8+61U1eu5DAsRgTEjCK6h2Zjc7THWje8k6WhVIrQMHknyJE4CN+/dYs8ksAbezqpkrvrDPEPx4rjnXNbPHUQzbUIZeX32JrN5FqPrVL9HzxZdwaf8+nProIwNgZ1m6Uz17oozmwSDPW0bbvgSwJAMYb2gZZDLAvr3AXO7S+q6qd99EQd8hQQb7QatMfJf7U9SzbdrcGOzbzExME9u7WT0r2gHCq2M2VoVO9PLTHmDypjfJzmA7d+yw9tUw57nkOTAOxJvY1gI/HD4cZ06fxtVXX621wb5hTPgNA1h5XR3ZYLGwwdJ1oll3PliiA0xlLv5dZrBvzl8Oegy5zVVduRVd+99q3OMexKtaZ+L03eNxZtNf0bpFyHXPHRy1DE5n2OcCu3+2e3fMJhWRVEQ39SCSXaWEVzBZACZAJb+/aoN98fhlBrAK5PcfgZwHs4ykozt9jWFZW5AzaxJaSZn/zoHFPt8xcPFPzfjxWP3ii8RgxGDOEEtVgOnAJeyyU+fqbLGFhwyAldiElN2qBc5MnICDjMVasid8I+06xoT8w8HFr6w/PkVueopFdDdv/Uw08xKiscF4Pq/1XGrtonUS6LyITgzWj0V1BPekN3zz5j718tWbhVUVFA3EkX2VyGcrnlseOoTvGbjqCwvxcZcu6Nb3Frz15uu0dTYBLD0B5vTWsj3mLhnzabSA91M2lR+SUtp6EYUI1K2z/WxA2pQMps57uXVwJ/VRl4cA5n+A9jOo0L6IDlJKdID5aVxiDG8pNdeAQgzmcQCfV1S9d9OSSuZHRs0FAKe6xao+KX9GMxeg076I/Jl8VrNIK2ITdd9Fg8Ryz0M/HZDSJKcEiMGIwXz13FiN6PFmjEQrnwBGACOAaSQQqwGFABYlwNT1Y169NFYNlmgjNNXH3cYmgBHAvMYG4zkNEO5iIje9Rj7yqmaxvsvv/ojEYNF1uHRjvLRmMAJYG1/sRQzmLSZiMBcGi2Z/RDuD7cTcjGLYzj6ZswOBZYOtX92Jcvbcvi8ve2SkYVMFal72aNjTR7FtOt9Q1CwbOwIIFmfc24xRLPNg6/9htYswos0+bVluv1Oy5jgqJocfTWsT14m1GN5uCraLm7Z3YzWcm4Fi6eXnsLouKhL7CobLRvebqaqCEoMpW2dHpyLKHd7shUangwAZB9gmjAmsZIBQr/C8MDr0YTxopLc6aMkaHK+YDBMKbgATwHP/HaNDn34Zpe1qMN8AqtPFf2spco5uxPQ8k/Hkd7O/J396AmtL2+FweS1Wjjht/F8zXx4czOf2e6lr4xHAPADGu4wumiOcwdSOzTsSO5hrdQUm3xQhwFgnfWb4FGSt2Wbk5WyVt+YIanIrLBaLEcDacACIOjoAjIGdJ1mx8U7kqeujrGerg8APlREEsFG8GBgEoc9FxtI8acAggDmOb+JBIlO8bptqXm+daqgDU3QAM0f6zaP46B0hwMIYjIN3FDYraqFeRYwHgzH1d9jTOL5tusWgZqufWFuKdjXzJVXYDrDTL4/FNKzWqKDhrJ3I/cez87MEaW2DCRZSBeX3jGYngPFdh8xnt0g2UehX7AALt8G4rcLBF26DzcEWw6biKlmoM7ZnHdrssJ9HZIO5/c4OV/Uw9C5byzNQIoxIS11l9OcAILPDEcDYBkXpsC8i7ya6eEQ5DtHtjGa3uEPzWV8syK5Aae0SDJRQXLkgGxWltVgysFL73EyqPjuJ9aPZQXurXsXEG9XnIm0pKoK/J+dvzO/4GaetGrP3KsEWHO28HF2OzUHtEvmtQ+WcXD8aM7EKr5ovIkvGRR7+65EMKdPCBmseBjOdA3nHo7DBdjIbZdMwBFaOsDHYYEstm4ZxKJhS4+BFjEBF3PcwMjaP0qp4aue1qUDC9loNTNPZWEJl4k4UssHkczXsOnQsNl50GmWaWud2Oi5IqH9uCy2jUREb5UVkamHI66jaK0KlnMM89zo3fQQAM9z6TunNljPsrFfG4ajk5ODvtjTPdO/78SK+Mk6eCiAvoiHYpgaAF903tj4qwNS96RsPsCjmwQxbJhdPajo5t3lWFvKOKdtblpQ4wxlTYz7nwTS/I+Qpg8WpDQyQTdkSekzzYGGiIicHc0bIV2wB9rDX+JByA5bXCzd2QEyV8tPWBiOAySc46jyZvIuXYI1hQ6aeRtNUACaAMUnL7nrhEJEPx/O2wYjBXJ0iXr05BU0S8cppCzCduuh0NpgbwHSA1PWn+KpM+ljHUMyfA0MptpQbDuJb/9RlSAKYDwbTgUjucH42IY1vB9VEinBXejDOMH0iJ5wGifjKnyI5jIgLp8tLRUxKgBlBt6FYSNUd31wdLtEAEO/6EIMRg/mwkFJXhSOAWRJo7IjrxWBydLyfgN/EUxHVWEcxEc0FqLfBzBhFX/iiaQYPMTnOg6VzLCKXWeziEc1znpvniiSesXlqmK6/mvYqotPpKl4LLxOPwZQFnTzaIxhnSE6OxmpAXgMERXI4ODlSFmCaVc/m+jHzaq4OF2+bJ9HKJwaTtm2TT7iMhMF0Xka1oePbofULOkNxhjyeUYmV5BW0bUPgPkbHt/6pC3gCWEoALHU7aKIxUqT1IYARwLzMC1IpfUiIbLA42mDNryISg3lhoLlUXGIwnwymgkhtMK9wqeZq4EhVGkofWycQAYwA5jX4k4roQ0KkIjZSRSQGk9ePefc4YmxTRsRgxGDeaKF5M08ZEYPFmcG8HB00oqfnPBvti8j2NeSX11nNPI3Xucxezz2HQUqQchJIaxVRPb5IjuTQMZLsKdQxkpsnkRgsTRkswC7dq6dah3DbF1FmMLe9OAhgdJ5YpNMYxGCWbaY74dItHpEYLD0ZiQBmSUA3EawKx+uESwJYSGKpptF4GXuxel9isAgYTLbLiMGIwWQJkJte46aPlMEIYGSDkYroU0V02tnXbY96L4C5zYXFSuWItIEpvSmB5pJ/WquIovP5PYiPAEYMFumARQBjEiOAeZn8zccAkXboREtPACOAeaOrGVWsRANMpPUhgBHACGAaCcTKZkvrWEQhV797I/L0XvGGXs999WZKlDISIAYjBvPVmWM1okeqYiV7egIYAYwAFk8VMV2CfYWLXdebnLyIslte5BPzZG4jutd5Yn56NDGGu5SSRT5pw2CxApgoRwQH67oBAYzc+qJfEMBcVEQdgxHA/PAvAYwAJvWTSFREAhgBTCeBtA/29asiqqzldFYYqYipYSPF20tJKqKiIhLA9F0uWZwK8QZMpOWnPcDUqHoCGAGMSyBWAwoBzNoXkQtV7MfhZ8kKqYikIsoSIBuMScNr45tYAUznfYzViBipikLpTQk0l/zTJhaRC5nHCaqXiEPk9/n/Ip3uf5HXT7yhnzTuHEBPU0ECpCJqts5urIpIDNZ8jJFojE0AI4D5IormUrESDTCR1ocAFgXAdAylCl6dP2tsB52/4CFt22YELpv32f6xDQ31qK+vN76Kvw0NDQiwewH217guW+nZ9waeln3OX7oULLvOev7yxo2232ts/b1QnKrlE8A8AOYEJq8D9+IBsNw3Xg/rp0M2bMBbEyZo+6/bs4EvvIDKu+/W5nujbVu8smkTAaxN4/cgIYAlEcAeX7zI1umf790bAkRT9++P6NmA9evx7sSJmMLyGeSWAfY3gHV9i0AAi50NSQBLIoDFksH6r1uHXZMmaRnstRtuwGubNxODEYM5a/ZOO+/KOZxOV3HbMlvk91IRVdWysTYGt8GmTp7oZcrYnzO7jJ/tIT6GPWbYasz+sv7nthpnrkCgwbDb+P3HFi8mgF2IzYmeac1gyQSw+x9YgJx2N4XbYMOGITcnRwu8Tz75BB06dAh7xvCEw4cOomthdxNw7Dv/GM4R9s+420qxddsbxGDEYOnDYBxgjy1ZbLeznnsOQyyAtZhml0XDauDjjz5Gx04doT67/AxwsLoKXbv1wJUzmPElXd+ubMD42wlgjdU4hEiJwaTDH8QBfImoIt5//wPIad8uIgY7duwYOnfuHMzDSYqfBsfZ6mDV+yjo3tP437wXYrI7Rg7Fzp07icGIwRrHYHJuETIVSTyifFifriZeB/a5GVTqCDpv3jzcc++97jaYh80lbC9uc/E5M64ecruLz5GFnjVg0SOPEMBiZYPV1tZqT7iMzJpOjtS6WERRc7czmnVxhX5iDf2k8Su5hQsXokNubkQM9uGHHyI/Px8ycwk7q/rAPhT2LAoyVz1z1XMW42z2i5HF2Lp1q9+qUToXCaS1itgYBuMMo57prMo5lgw2e/ZsLF++PCIb7IMPPkB+167IVOyz2lUBHDywFwUMYFfd18JW5qll9Rg3qhiVlZWkIpKK2HwqYnMArHOnTuEMNnQocjXMxhMePnwY+QWFRh5DLZS8hVX7dqHgZ/1sNphgsbGlt2DXrl0EMAJYYgOM185pH0WveTTVBisvL0fZzJn2FxY2lwGe0ByXPNdl2lYhmytoa1lzXuZ3Nv/F0GXYZCwWceGjj2Lv3r0EMAJYcgNM1F7nLFEBNmvWLBQwdU+9BhcXo2PHjrbbwuYSrnjT7jKT8HkuzmRVe95Bt6JBwe/iPrfDxt46APvfs4dexcpt7dRiqVo+2WBWi7t5EWUmEh3Ej4roxWBqZ5OBpgPYE088YcvyPJsHu2XwYHRiqqM613Xp6ZArvnWZfa7rzIoGVO95G117D8INczJtZR5fUodxw/ti//vvE4MRgzUNgzUWYM61dH6i7vkxc8YMFHbrFpZh4KBByMvLM+5zDyBnLxGVUXVgPwp79LJsL5O5BJNV7X4LBUXFhudQ9iDy7+Nv7UcAi5WbnvamD51wyTupbh6sMQCTGa+NNCI67Q/ilL5s+nSUM0+iW2xhKL6Q21Pm3JY6z2XGG/K5LzNGkdtcIp9YK7aIxSISg1Esoisx+An2FQXodvb1iubwqyL6AZgfG6xs6lR069Ur7J37DxhguOJFhIYBQMvmqn5vDwpv7hP0HvI0wtY6uGs78vsMYi/r0AAAIABJREFUtRjMnP8S14QRxGCxsgnJBrNYSwBK/Ss6nW4Bpdc8mIwGtcEi9SJygK1iNpd8cRusb79+6Mpc8S2n27F3/k8BVL+3GwU398U15fa5rtN/qMfJjw4hJ687Hlp/LJjx5IUfYcXEa0hFZBIhgHkYNonOYF52mVr/ssmTmdevKCxbUZ8+KGBR8fUWBXF7SsQWVu97FwW9BgRZi9/PapmBTObzqHzuKeSweMPWu835rov9+uPrkSORN2ESFs34NZ5mK57dBohI65+u6YnBmonB/HY4na2my8tDqfbs2WPGFEpzXIYNxu0xhrw22dm47vrr0fJ3DyHAlqO0ZgsrL371Fc6dO4eLLN85VnD7MXdgx5AS/GbmPQSwWHgRKRbR3A9RxA2qf0Uvc4orjGW8oQ44ftXQjIwMnP+eOTCkqHjuii805rrMOMNWLVvg8Et/Rtv583BtaSkaMluiRf1lnK2oMEB2loHsNKvEO3fdheXPPus1BtBzHxIgBmsEg3GvoJctJdogWp1eLZ8DSb64U4Nfxv17rNlk9p3bWdXMFV/YZwh+PNec65rZ4yiGbShDr6++RFbvIlT96pfo+eJLuLR/H0599JEBsLMs3amePVFG82CQvb5eWKKts5mEnNStaL2IzQGwIJisFpcB9u0F5nKX1ndVvfsmCvoOCTLYD1pl4rvcn6KebdPmxmDfZmZimtjezfqdaAcIr47Z2AEo0csnBnNgMN5wbjv8ig6XSAy2c8cOa18Nc55LngPjQLyJbS3ww+HDceb0aVx99dVaG+wbxoTfMICV19WRDRYLG4wmmkMTzTKTJSLAZPWQA4Z/lxnsm/OXgx5DbnNVV25F1/63Gve4JnlV60ycvns8zmz6K1q3CLnuuYOjlr3wGfa5wO6f7d4ds0lFJBXRTT1orJs+kQEmQCW/v2qDffH4ZQawCuT3H4GcB7OMpKM7fY1hWVuQM2sSWkmZ/86BxT7fMXDxT8348Vj94ovEYMRgzhBLVYDpwCXsslPn6myxhYcMgJXYhJTdqgXOTJyAg4zFWrInfCPtOsaE/MPBxa+sPz5FbnqKRXQ3b52MctXRoZ5w6WZ36VYoN4cN5sRg/VhUR3BPesM3b+5TL1+9WVhVQdFAHNlXiXy24rnloUP4noGrvrAQH3fpgm59b8Fbb75OW2cTwNITYE5vLdtj7pIxn5JXMLr+45SL3PSWZJKNwdR5L7du4aQ+6vIQwAhgcTGykw1gftiIGMlbSs01oKTVPBhvhlgDTJTptUdiczVwpCoNpY+tCp1WZzRz0al7I6pnNMuxhWqcYXPFI3qPz5QiUSWQ1gwmexB5A7lNNKtMJTOSH08iMVjT2DyJxsAEMGtvegJYegIg3oBMa4CpwlX343DbNoAYjAApS4Dc9A5ueiEkeds2P9sGEMAIYAQwTSyZ05IVAhgBxg9gIlUpSUW0JEYAI4ARwGIQ3RwJg6meQ6fTUuy22k7MzSiG7RyUOTtQu6jIvvzhxFqUtpuCgh0BLBvMf+kE1pa2w5Qt4R29ZM1xVEy2jo8Ny8fT70Q5+80n2O8EzMKM68TaUrCfwJrjFRDZ2U3jdztvqcXKEW2slJo6syfm78JfvZRqX7iwFQ9nl9jlECwz/CjcVPWyEoO5MJgKMPm7sw3GO+tmjAosg+jqO+dmoLhuCwIrR9g6/5MYhyM1uaiQQGEhA8OnXMKabdOhdkUOmvB8HGCLcaykB+ZXiN8VgC2xAUzkrz7cFtuC9QmvswnEGsy33sN439Mvo5QdhbSaoS4cInaEmQDbbpODWmY8GCNSFS7e6QlgMQCYHYiazsrY6ZnhU5C1ZpvFJLzzP4ncijJ8avwNgdEdYE75OMA24Yo5bO/6URYjcoBMq0EBjiBvtWCwUP6jw1egy7aV1iCgr/NaE01GnWMCMIOlQ2USwGKgksV7hIi0/MaoiE4M5g0wYGt5BraPkTr/kyZzGYySW2GpiUHdTs9gHDTafCbAxuy4AsWbRxlqIi93GuZj3CtLgyAxGMTKX/PMcKztss36XWIwtR/FSmUlBmsSBrMDzAYqg2kUtYvd06mIzvksgAXGYLOhnnJm5IWuBqaFGEPOf6HmGYz9bZal7ulssDnYIam50TGYaoPZy0wLBkunfRF5gzqd06zbG1Gk58/E5R2PWIkF2RUorV2CgVIPqlyQjYrSWiwZeBLrR7OD9Fa9iok38gTqd35rPcwkE2EkMS63fKHfxILR+GzaHByb+RmmvVqMHcHf8pffrLOmTsZtXb2cdAhVDg5lOmVPkfvEYE3CYKYTovA4s8FgevFUZ6HqKQxjMMv7p8/3uakiBphNtXMuSpceAcattjyAFoO5/u7nYY4ZsHIyLHWTiyg6BlOcHEqZacFg6bSrFG/Q5rDBZC+iaRvxzi/54VQ1UaMiuufLxQoBMOayn5uxFHmGaz7kVBi23f67dsDk4knF88ld/7I3NCYAU8okgJGTI2znXu8zl93mwfZJnV/uXqZLvWZ+yAliZzAZNLp8O1BXbDGYTbUSAJuPmnYCdGYC04g/bf3uDjDviN2lztLwgWFpnjkHFxuA2cskgBHAogCY3niIlVfKyTSh8t2NtuaSD9lgMbfB0glg+ggQFgOCp49uxPQ8ESni7bFoLgDEe8AigBHAvHt/UKUkwEQKSAIYk1g0eyPaR9ydTJV8G/yMLttlxAay45HU2EQ2wofiA8NZgHsUN955nRW72Jg4Qdk7aJbDJreMyWWz/twm1IR1yYGUVnyjH4YxnDmavKZMdNEiIWn5KT8ZbTYCWIwAxjvqDxb+IHiIeqgzmB1rWO0ijBA2bdBd3d7u3DAymQ6Pw+UiGNc7ysJwWtgmjsWvy3ktoJaswXEWS3idBmAGQKAJGK6ZHx6srAzlal4OmNMvj0U7ltcMQCaA2USWqiOKzk2vMhgXhNOiS/GMTz6Hzo8yO49vgAm3fDDQQgme5QBcnIPjRrCvd5ygf4BtRt6aI6hhoVmLihQG00WUSD3CtT9o8oanJ4ARwCw2izfAjGUkbGQ/nrc0fE7MUqeCE8c6gCmR7pEAbFRglBFOZTKqpCK6TAIb5bttJa3JSwAz4UQqokZFlAGm/u/MYMWMwRba7LA5hr3jHOfXXjfprAWYsr4M4TF9/lRE097ivzvl0gpsm34qaIOF1YWDRhhUTK08uvFO5DlM24RNgit5uUqqZ+LQmJ6qGlPa74vIm1jdG5Hfi2x/RDPu7tqF1xpl2S99bCJPc3L9aMzEKrxqBiVKl5zHZ0yfNk7QqRxxvxQVIm6ycgGyK0pRu0SOoDQqqYmLVKvrJ6+zHJTSUuorMZjEYLqjZP0zWAQ2mOhCTnaPlw2mU8l8OTlCHkO+XOW3Wf+Igik1ZgSHU12s+ytcGMxYBqOsCAiP/CAbzDZypCpluzk5mhxglsfwlXHSlgB+vIgauywSFXEwa+nQkv6QuhnuRQx5Ht1URN5xwr2I1pYBltcybVVECvbVHyHrdU5YuBcx3AZjm1owl7gZSGtz09uGMj/zYO5xgry4yAHGvIj7HmZ2Fp8aC62oNvfxCMXsl6xZg4JXgMluDGa9j1PesqANptiSQfCl7nFKaa8iOk0yRwYws4e5baGdqhqBk8FE72tKhgD28MPBJSzRq4jpADD9LlE87tC2a5WFOAIYAcyQADGYP6cdAcZdTk7yIQaLIYO5qYmx6aB6ey24XsuYOLbbObaV0ryCjvsihtt5cpeKTf2dO2mqlp/2AJObvLEqYnwBpizKNCoeuhcW+qQ8F1sv+t4XUcFCqgIg3jYkAUyScEIDzG3ObGmeFWkRHh1vj7KIZF9Ee9cjgJGKaJOAU4dw2pNDtsf8HMRnd9OHftrJk9jYDqrdk8P4WTlaXwWYstFnJPsiEoPZtzr3MFXJBpME5AQyvwzmpgo2P8CcbTD3fRHJBouHzZl2sYhciI3dG1GUER53aI9h9Oef85cqurhFM96xy7E5LMbwJpf9GNMzTtCf5BuXKu1sMME+OrElMoPp4v1MDZFFvbvYYMF8fO2Z436Mmn0RSUUkFdFtbHGzeZJRRRQeQ13cIt/uTe9FtI4w0qw9swfj6vZFJCdHaEGtN4uRDdYIG0xncznZWvGywczqRz4PFoqH9NoX0TlOkP9yY500Xl00VcsnFVFqeTfvoduB6HLniS/AnLtpqnZQpzdOlvclgMUYYE4exmTpEMneoROt/gQwApiX9mY8pwHCXUxkg3nYYPK2AVxVVJnIr4pIDGYKmgBpyoEYzAIeASy6ETrRVLJEqw8BjABGKqJGArFiYAIYAYwARgCLrU6vm2gWKqLfaA637QF0z2I1IiaaCkT1cbc5KRZRYTC/ZzXzbN7nNfsiB0qUwhIgFVEBmF8G44zEASY8jnIfIQaLrcahw1+yaAQEMAKYL/5Ilg6daCorAYwARgAjJ0dsVY5YODncVETeXqqaSAyQnvNsxGBxYDACWGwHRLLBmASSaYQmBkuu9iKAJTnA/Gw+qrISqYjpqfJF6kQhFZFJjADm7edIJg0lkRiPAEYA80ZXkmkoBLBmbjDVBiMG88YYMVh0KjExmAuDqXaX7HonGyy6DhepDZPs6SkWkbWgekaz0/nMauyhUywi7xRuz7z5glKkigTSnsFk9ZA3qt+Nb4TK5Hd3KVKx0pPxCGDS8UUEMGcQ0AAR3QCR9gBTxRYrBtPNmzVmI8v5Cx7StnBG4LJ5PxBAQ0M96uvrja/ib0NDAwLsXoD9Na7LVnr2vYGnZZ/zly4Fy66znr+8caPt9whgBDDfHcLvCSsqSFQnBweM34WXje2gHGC5b7we1spDNmzAWxMmaFvf7dnAF15A5d13a/O90bYtXtm0ybc8dYU09n29bLBkKZ8YTGnJRGawxxcvstX2+d69IUA0df/+iJ4NWL8e706ciCksn0FuGWB/A1jXtwgEsNiFkhHAkghgsWSw/uvWYdekSVqieO2GG/Da5s3EYExD8XvRvoiSpLwOf+BJvfZG9PIiquplY1UariJOnTzRb3ub6ZhdFpA+hj1m2GrM/rL+57YaZ65AoMGw2/j9xxYvJoCxFeuNsZlFQxGDSV1Wt12AbGM1pw12/wMLkNPupnAbbNgw5ObkaIH3ySefoEOHDmHPGJ5w+NBBdC3sbgKOfecfftWzf8bdVoqt294gBiMGcx7Q3RjDi8H87MvR1AzGAfbYksV2O+u55zDEAliLaXZZNLDzwD7+6GN07NQR6rPLzwAHq6vQtVsPXDmDGV/S9e3KBoy/nQDWWI2DGEyDzYRmsPsfQE77dhEx2LFjx9C5c+dgHk5SjLAMtjpY9T4Kuvc0/jfvhZjsjpFDsXPnTmIwYrCmZTDZrmpqBps3bx7uufdedxvMw+YSthe3uficGVcPud3F58hCzxqw6JFHCGCxssFqa2st7du97VLpaSRnNHvFHzZVPOLChQvRITc3Igb78MMPkZ+fD5m5hJ1VfWAfCnsWBZmrnrnqOYtxNvvFyGJs3bo1lZq82d6FnByS6L1UxEgZTJfeb0urNsDs2bOxfPnyiGywDz74APlduyJTsc9qVwVw8MBeFDCAXXVfC1uZp5bVY9yoYlRWVpKKSCpiYquIsQZY506dwhls6FDkapiNJzx8+DDyCwqNPIZaKHkLq/btQsHP+tlsMMFiY0tvwa5duwhgBLDoACY6vpo7GgaTQaSrjXDtq4zkFmLFy1HTl5eXo2zmTPtPCJvLAE9ojkue6zJtq5DNFbS1rDkv8zub/2LoMmwyFou48NFHsXfvXgIYASy5ASZqr9t+WwXYrFmzUMDUPfUaXFyMjh072m4Lm0u44vlDzk7mX5PJqva8g25Fg4LfxX1uh429dQD2v2cPvYqV29qpxVK1/LS0wSJhMJWhdIzkJ+BXx2A6BhX3dAB74oknbFmeZ/NgtwwejE5MdVTnui49HXLFty6zz3WdWdGA6j1vo2vvQbhhTqatzONL6jBueF/sf/99YjBisPgzWCwA5lxL5yd8lbUcqjNzxgwUdusWlmHgoEHIy8sz7nMPIGcvEZVRdWA/Cnv0smwvk7kEk1XtfgsFRcWG51D2IPLv42/tRwCLlZue6d1aN32qUrboobpoDj8RHJEymBMjOf2+U/qy6dNRzjyJbrGFofhCbk+Zc1vqPJcZb8jnvsw4RW5ziXxirdgiFotIDEaxiK7E4DVAJBLA/NhgZVOnoluvXmHv3H/AAMMVLyI0DABaNlf1e3tQeHOfoPeQpxG21sFd25HfZ6jFYOb8l7gmjCAG8+o/akNQNL0iERVg6iHoTkG+sWQwHbAcGYwBbBWzueSL22B9+/VDV+aKbznd/oLn/xRA9Xu7UXBzX1xTbp/rOv2Hepz86BBy8rrjofXHghlPXvgRVky8hlREJhECmIdh4yWg5gaYl12m1r9s8mTm9SsKy1bUpw8KWFR8vUVB3J4SsYXV+95FQa8BQdbi97NaZiCT+Twqn3sKOSzesPVuc77rYr/++HrkSORNmIRFM36Np9mKZ/nykqffEd3pvVO1fPIiWi3e1AzmF2Bu2xvIZfBQqj179pgxhdIcl2GDcXuMIa9Ndjauu/56tPzdQwiw5Sit2cLKi199hXPnzuEiy3eOFdh+zB3YMaQEv5l5DwEsFl7EdIxF5D1HjUeMdm9EURbPH4/L6Zha9bcyMjJw/nvmwJCi4rkrvtCY6zLjDFu1bIHDL/0ZbefPw7WlpWjIbIkW9ZdxtqLCANlZBrLTrOB37roLy599Nh6vk3ZlEoMlAYPJthoHknwJJ7Bx/x5rNpkl4HZWNXPFF/YZgh/PNee6ZvY4imEbytDrqy+R1bsIVb/6JXq++BIu7d+HUx99ZADsLEt3qmdPlNE8GK1odhsOvXT6ZLHBdJPYMshkgH17gbncpfVdVe++iYK+Q4IM9oNWmfgu96eoZ9u0uTHYt5mZmCa2d7OE7CVPssH0bn1isAgZjCfnnV6eCPaKK+R5ou2gatluDLZzxw5rXw1znkueA+NAvIltLfDD4cNx5vRpXH311Vob7BvGhN8wgJXX1ZENFgsbjCaazX7k18mhA5i4F4nb3csY0S3oVJmLf5cZ7Jvzl4MeQ25zVVduRdf+txr3uAfxqtaZOH33eJzZ9Fe0bhFy3XMHRy2r0Bk+ELD7Z7t3x2xSEUlFjKeKKINGZRGVwZoaYLrgG9UG++LxywxgFcjvPwI5D2YZohrd6WsMy9qCnFmT0EoS3t85sNjnOwYu/qkZPx6rX3yRGIwYzBliXiqZlw2WqABziGwDB9ipc3W22MJDBsBKbELKbtUCZyZOwEHGYi3ZE76Rdh3Lyz8cXPzK+uNT5KanWER3JSsSgHkdwJcoDMbfWFYLZQnw+/1YVEdwT3rDN2/uUy9fvVlYVUHRQBzZV4l8tuK55aFD+J7lrS8sxMdduqBb31vw1puv09bZBLD0BJjTWzsBzym91wCk5qP00fU38iIyuSUyg6leQ7dmdlIfdXkIMNEBJtIBiwCW4ABz7wahpwSYpgEMAcySgFeHi3Z3X158U3oRCWB6CXi1b6KouGl5RjMXfiR7I4r0It5QtxcincnsdyhIr3SkIirt7XdVs7qk3yuaI1lG3EhVIEpvSoAWXCo9IRIVUaiF8pFGBLDEtHkSDfDEYMRgvnQ2YuDoBhQCGAGMAKaRQKwGFAJYjACmqpGJ4sVKNJUp3epDACOAEYMRg0W/nsqp9zTGyeHEVrzM82xvDNsZKHN2ILBssN3LdGItSttNQcGOANgjdp3A2tJ2mLIlvLYla46jYrJ1dGxYPp5+J+ZmFGP5fVsQWDkiWMCJtaVgP4E1xysgskPKv6hILBC08is/bf4u/NUrrNo7Uc7qZN+HGLC9i5InVipZojEkMVgUDOYOsPMYFVgGAze8+8/NQDF2oHZRUXB9Ee/8T2IcjtTkosJEWOjiIGDHDa3YeCfylOUS+nwcIEtRPawzHty20vpdAdgSG8Dk/BuD9eH5N9vqbAKxBvOl97hQ8wzG/jYLqxnqwk+KVrs1B9gmjAmI+vAxJLxMORcBzEORSDYBxY/B7AAz2WkaLq3YiOl5bSy2ehK5FWX4tJT/DYHRELEjwHg5unwmQOruW44rxliMaJRRgwIcQd5qwWD2/G03LsIIA8AagFl1ZmgKsl+jAaYpkwAWgwVniUbZoj5NBzCTxTYNq8XKEaxD887/pMlcBqPkVlhqolUzJ4A55jMBMmxLHUq2jzHUUV7uNMzHuFeWIggSJf+KthvN+ugARgwW9RYPan8nFTHOKqJQEwXAbKCywGRTuxwA5pzPAljtMGzP3s5UPc6MTMdcvRqYxv+aLKTmHz7lEtZsm87UPZ0NNgc7JPWQv0PkDKbaYOFlpgWD0b6IoWb2uzciz+EUj3h24VmU1i7BQKn3VC7IRkVpLZYMPIn1o9kheqtexcQbeQL1O7+1HmaSiTCSGJdbvkosyK4wfhMLRuOzaXNwbOZnmPYqs/yCv+Uvv1lnTZ2M27p6OeknoTq5lumUPYXuE4NJjem0Lown0a1qVje5Mb2Iqg1mOiFyjjIbrPXLhvdQdRaGeQpVJ4fl/dPn+9xUEWuZTbXvYZQuPQKMW215AC0Gg+m1dMsvO2aYTouMzaMMdVNckTOY4uTQlJkWDEa7SoWaOR4Ak72Ip18ey2wj3vklP5yqJmpURNOmcsqXiycFwNrsM8CcZ7jmTecKVxGHbQ/PHwKMmd8GMI1d1miAaZ0pIdknm5NMJVkK9lUk4nZ8EU8qB/bKEfaiGF30vPs82FY8nL3S6vxyZUyXes182QMou+lNBjRBo8u3Ayi2GMzmlBIAm4+aduH5L1yowctju7DfNfPbAWY6ZpbmhebgGg+w8DKJwdLMi6gymKwa+lURnfZGTNUR2slcovc1JUM2mIsNRgBzU+H0ESAsXsOY3L7zuticEJnsACaAEcB8+eyIkdzFRDaYRj6qHaZbzex10mUwFtAqn5/TxT8wYhDZltw8TtD223L4UjgLCI+i2WDcaaHmFzF9XnGCpnfRtK3M32GTW8FJ7QsXuE3I582UsC65slYcJa++M8A0TMbyhULDHJhOKtu9fH3HThbApy2DCfVPbr7oARZyEthttVAYUpHYyDLorm5vd24YFQk5PMxgXA4w7zhBHh0SmjgWbySHQFmdvGQNjluxhCrAhLdTds0bAcM188ODlW19PjzUyiirTgQf60KxwkGTLICJVGUlgGlURL/7cpgODXsH8gSYcMsHAy2U4FkOwKV5OGoE+2oApovp8wWwzchbcwQ1VmiWDWC6iBKlJ7kzmOqFPIFnhk9B1pptzPNJAJPOl3czaqPTQSNFfFOmj52K6J/BBCscz1saPrdlvLwIfeLBuLFkMF7HUdhsMWKRrCJ6TAJ7q4jhbv6t5RnYbgQfE8AIYBaqI1ER+YhuHu96i81OEjbYHMPecY7za6+bPNYCTLXBNDF9PhmM21vidzfeWRO0wcLqwgFXbBljllp5neNe7XoA2QEWbkea8kn9AT1t90XkTSvvjegUhyjHHKrxh+b3vsFYQB53Z0+jxuSFOtTJ9aMxE6vwqhmUKF1yHp8xfdo4QadyxP1SVFgxjAMrFyC7ohS1S+QISlYlX/GH+ncMxV86y8BdJ0qNp2SDWe3odACfkxfRzmD+VcRgt3Gye7xsMJ06FwGDcdLgauqUS7ejx28+M72ITnWR7kfGYHzB5WIUHicbjADWXACzPIavjJO2BPDjRXRYv+XtRZTtJLGkP6RuhnsR7Z7HSABGXsQQ+xLAYgKwkI0RnAczbJdQIG3QTW/TfPzMg3nHCfpz09vLubC1HNklV9jWfZn7eIRi7kvWrEHBK0AZc+27A0yxsfzMg0lTBu5OFL2qmCxufQJYowHGXfWhy2kL7WTpEE6WD9Xf3SakSA6NfGQ3ffQ2WDoATL9LlIg7tEf5m4ImQJpyIAYjBvPlriPAEIPZJOCnQwgGk5ep8EL8RHKEvIjRMpiz/cUnm8O2PQu+nT7fxjuvC24Lp8ZH8qz2PQl15WtCq9Q+JeIH1RXWSlwhMRg5OQwJNGZnKSeAiXLVdWHhgFcnaOWFl04AUxZnGm9h3jtcbu1aJXki5Ylc7tnbPEpM7voBmOIUCU40hy8A1cUx+hngZPymanpSETXM3xgGix5g5vyUuTXA53oGc5s7W5yD43yXKB9zWnwnqXCGVBnMAWA+4haJwYjBEpTBxDZregbT7s1hvEkovVcIlli+EjXAxDZviptdHadSlZGcLDHyImok0/wqon3+KGQnJQLA3OMHDbVQrB3TgI0AZnY4ikXUAE+47NUzmfWxiHPDSvB3XnN4jB6PT+xybA6LCWRbHIo4Qal0P/GLNznFOPJ4wxJgi7Fnoy4+0C0G0mncNu/zuMMStilcWCyje7a0eEo2mIcNptpUYiI59k4O7q8wD35YzSJAVqiHJxj+DPFcs4bMyQYzYhuPoGTLFmwJMg1fr7UCXYKHRahlh0fIuzKSpl7EYBaDpeu+iAI4umFU3aZNF/AbD4CFVhDDwU1vegx18YuqF1FOI0Kg5CUioeUkpgTk1cu6/eoFYIx0r4wLrow2LEBlizd+jwBGANO66d22bpPZTHQgp/0R/bnpFTsnyDCayAnpmbpPB7fdvObBjOa27bFh7osYDD202VEO+2hYaRjKbTGLcrliwCKAEcCaGWDuJkjsO2hop18e2hT78u3vQ+UTwNIMYASANs2wkS45ORQiaToVsakZjABGAHPpc/FQOdz2p/eK5mi8DUYAkyUQj/ZNhPKJwRwYjABGjBcLxiOAxQFgsreRvGruTJ3q8iGAEcB8ISBVVTinl4/V+xLACGAEMI0EYgawdD2jmctU3hdRyFiOQxQxhd57I0Ybj+irb1OiJJYAMRgxmK/uG6sRPd4qWaKVTwAjgBHA4qkiUrCvXbp+96d3mwcjLyKFYoleRQxGDEYMRgwWnxE029sPAAAgAElEQVTR6fgiLu/GTDQTg8WnvWQcJItNSAwmtZoahyiWojitB+Mz/U47+ar3k6VDJJqTINnrQwBrJMB0bEUMRgxGNhiTQDQqogAPny8TsWp+Fl0Sg7mbeqkqH2IwHwymMhIHFAEsPQETqcpKACOAkReRvIjx0+llNdHJyRENg6l5UlUFinRET7f0ab0vIm9sP+c0i3TqPomiszjtg+hvf0RfBEKJklQCaa0iCpYRbUcM5tyLiYGjszkJYMxhQQDzpgcCGAHMJgG/HULYYPIJl7wgr81HvbyIsbbB5i94SNvCGYHL5v1AAA0N9aivrze+ir8NDQ0IsHsB9te4Llvp2fcGnpZ9zl+6FCy7znr+8saNUclTZPIr/1RPTwxmMVgyACz3jdfDQDZkwwa8NWGCFnxuzwa+8AIq775bm++Ntm3xyqZNBLAYbPNGANMAzM/Wbc3BYI8vDqmzvPc/37s3BIim7t9vA4TXswHr1+PdiRMxheUzyC0D7G8A6/oWgQAWO681ASyJABZLBuu/bh12TZqkZbDXbrgBr23eTAxGDOZsePq1AaLdG7E5GGzq5InOL6x7wuwytt4v+DHsMcNWY/aX9T+31ThzBQINht3G7z+2eDEBLHhkrj+R0wF8DnJKFoDd/8AC5LRjm8or15Bhw5Cbk6N9u08++QQdOnQIe8bwhMOHDqJrYXcTcOw7//Crnv0z7rZSbN32BjEYMVj6MBgH2GNLFtvtrOeegwBYC3aumHw1rAY+/uhjdOzUEeqzy88AB6ur0LVbD1w5gxlf0vXtygaMv50A5lcDEqIjBkt2Brv/AeS0bxcRgx07dgydO3cO5uEkxQjLYKuDVe+joHtP43/zXojJ7hg5FDt37iQGIwZLDAbjtfBastLYEXHevHm459573Q0CD5tL2F7c5uJzZlw95HYXnyMLPWvAokceIYDFygZL530ReW+Nxd6IohwRqyijIFbxiAsXLkSH3NyIGOzDDz9Efn4+ZOYSdlb1gX0o7FkUZK565qrnLMbZ7Bcji7F161Z3MNNTXxIgN70UKiUk5mdnKdmL6MRg8v3GMtjs2bOxfPnyiGywDz74APlduyJTsc9qVwVw8MBeFDCAXXVfC1uZp5bVY9yoYlRWVpKKSCpiYquIsQZY506dwhls6FDkapiNJzx8+DDyCwqNPIZaKHkLq/btQsHP+tlsMMFiY0tvwa5duwhgBLDmAZiOsbw2v1EZzCm9eCM1fXl5OcpmzrS/sLC5DPCE5rjkuS7TtgrZXEFby5rzMr+z+S+GLsMmY7GICx99FHv37iWAEcCSG2CySqq+iQqwWbNmoYCpe+o1uLgYHTt2tN0WNpdwxZt2l5mEz3NxJqva8w66FQ0Kfhf3uR029tYB2P+ePfSqsSquc0uZT1K1fLLBorDBYsVgaqfjtp8Tg3GAPfHEE7Ysz7N5sFsGD0Ynpjqqc12Xng654luX2ee6zqxoQPWet9G19yDcMCfTVubxJXUYN7wv9r//PjEYMVhyMJjX6K17rjpRZs6YgcJu3cKSDhw0CHl5ecZ97gHk7CWiMqoO7Edhj16W7WUyl2Cyqt1voaCo2PAcyh5E/n38rf0IYLFy06fz3vSCiXRM4rbpaCQM5sRITiFaTunLpk9HOfMkusUWhuILuT1lzm2p81xmvCGf+zJjFLnNJfKJtWKLWCwiMdiF4LZ8fgZIiuRwkJLfWEQVVKqTIlKnhbrZjlo9tcHKpk5Ft169wt6i/4ABhiteRGgYADRsLaD6vT0ovLlP0HvI0whb6+Cu7cjvM9RiMHP+S1wTRhCDxcomJBvMpw0WD4DJNpcfgK1iNpd8cRusb79+6Mpc8S2n20s4/6cAA9huFNzcF9eU2+e6Tv+hHic/OoScvO54aP2xYMaTF36EFROvIRWRSYQA5sHbfgXUXAzmpXaEMdjkyczrVxSWrahPHxSwqPh6i4I4c4nYwup976Kg14Aga/H7WS0zkMl8HpXPPYUcFm/Yerc533WxX398PXIk8iZMwqIZv8bTbMWzfPmVp5OKG+n7pkp6YjCFwSLZWUpmoEhVRL8dSDcA6PLyUKo9e/aYMYXSHJdhg3F7jCGvTXY2rrv+erT83UMIsOUordnCyotffYVz587hIst3jhXcfswd2DGkBL+ZeQ8BLBZeRIpFXGbrSPLeHPJ5zTxRNGc1ewHJ6zn/TTdVUuTPyMjA+e+ZA0OKiueu+EJjrsuMM2zVsgUOv/RntJ0/D9eWlqIhsyVa1F/G2YoKA2RnGchOswLfuesuLH/2Wa+q0XMfEiAGSwIGkwHGgSRf3KnBL+P+PdZsMvvO7axq5oov7DMEP55rznXN7HEUwzaUoddXXyKrdxGqfvVL9HzxJVzavw+nPvrIANhZlu5Uz54oo3kw8iK6DSB+bQa/J6zw39KdEybqEE8VUWUwGWQywL69wFzu0vquqnffREHfIUEG+0GrTHyX+1PUs23a3Bjs28xMTBPbu1kv6FeeZIPZeyUxWIwYTAWgCv5oO6gKXDcG27ljh7WvhjnPJc+BcSDexLYW+OHw4Thz+jSuvvpqrQ32DWPCbxjAyuvqyAaLhQ1GE832rdCidXI0BcBU5uLfZQb75vzloMeQ21zVlVvRtf+txj2uSV7VOhOn7x6PM5v+itYtQq577uCoZS9whn0usPtnu3fHbFIRSUVMJBWxKQEmQCW/v2qDffH4ZQawCuT3H4GcB7OMpKM7fY1hWVuQM2sSWkmZ/86BxT7fMXDxT8348Vj94ovEYMRgzhDzq5LFygZrKoDpwCWcHKfO1dliCw8ZACuxCSm7VQucmTgBBxmLtWRP+EbadYwJ+YeDi19Zf3yK3PQUi+jGX/5n4r0AJgPHzcnRFAATQHJisH4sqiO4J73hmzf3qZev3iysqqBoII7sq0Q+W/Hc8tAhfM/AVV9YiI+7dEG3vrfgrTdfp62zCWDxBZifbQNU756bJ9Evo4q3Eum9vJMivWyPuUvGfBptffyUTeWHpEReRAcvohfAeAdVJ4HjATDVa+jWwZ3UR10eAlhsBmh1QFRLJYAlOMCIMfQSSJYBggDm4wA+3dqwpmIwAliSA4xiEUOxiE5xiCIGUd3j0Ou7X3BQutSVADEYMZiv3p0sKpnTyzRX/QlgBDACmEYCsQJk2gOMy1bMhTmFSZENRm59r1GI9uRwkZBfgAkwciCSk6Np3NyJpvJFWh9iMIvB3A5B10VwEMAIYLIEiME8GIwARoDxAxhiMEsCkRip0Wx8o2OwoAo5qS1K203BFtEac3agdlFRcPnDzrkZKJYOSpmzI4Blg0XinZibUQz5HJWSNcdRMVkcHxv+nOcc9vRRbJvONyDlzzdjVGAZBhv/FwNh5W/GsNpFGGFFi6v1AatvIFQho2Lh8tTXQ9T1woWteDi7xPYeRkGasvXlpwbgSUWUnBxyk+pCpbxsMPH8/MI9yDteAYEJowPXbUFg5QgY/0PuwCewtrQdauZzkIX+X1QkNr6Un/NfkAFk1fjEWgxvdxgPBlZaoLIDbHnJGhyvmAwTomZ+AbDw+gAn1paiXc18G8j0ABO/E6pHabsazGfgLjIAtt0CujtYCGDe8knq4NFYM9iePW2xOtihTeEZHfT0yyhlZ3Wpz4LiZUARz6+To7l3zkXG0jwLJBqA4QSeGT4FWWu2MVCrDLYZeWuOoCa3wmJJCWBe9ZHa3RfAWD3Wmi+AO68jgHHxEYPFhcEWws4aJsBOvzw2jBnksYszxzSsNtRBe4cOB42pAvphMM4yo7DZpjZaDLbvYWRsHhWmDurGU18A4wMEMZhNfASwOACMq5c2u4apaEc33onWDGACQLpO7B9gdhuNGTbYErSp9GBsHwTv50EVMU+tD2dKYRza1Eq/NtgcZu6ZwHeywez2ZkgKkdjMyaRSZqR7LCJvLL/nNIu04ixm3fnLunuVC7JRwlweRzsvR5djc1C7ZKBW6T65fjRmYhVenXij8rwSC7IrUFq7BAMh/8+TncT60exgvlWvwszmlFbcL0WFKKtyAbIrSsPrc3I9zCInQq1JqGKR1MOHjZGiSYjB4sRgtv7CnRBTLmHNmixMi4cNxpln0zDDiRLuRQw5IkyGHIeCKTWmk8PJBpNsQeG79KUi8npYKqfJYOTkIIDFAWALmZMj5LVjXZ55DhfnmG50P17EV8Ydx8Y7r7Pc+j68iMwzWJ6xCWO0XkTZ0ydc6yGVMrw+VhpfKqLiRZQ8nORFNIdYAlgcADap7R60mxKcBTPmfmI7D6Z2bGBreQZWFvL5MtPGCs2DKWkNOwuSzWa55aX6lqxZg4JXgDLJE+qLwTh/ssFkaR4fIGr082AKcAXTp6wNlu77IvIG9tr4xilUqg2bqPV7TliqdiAn04nelxgs2DcIYE4w0UdrgLls1kgT6brcBDACGAEsBhtrEoOZEqBgXxc3sBeDCTVSDp9y2lZNqIxh8X33maFS5qWLxhD31Tkudt+I34MZo6jE8hlhTVOAp49uxPS8fWFxjMbPSflFXKJZf56e22hl+JSFa8lmoxBXKLZQd2axA8NJNqd73GWoUVKV8cjJ4cMGixRgt5xfqMQbAjXPDEeXzx60oibcAGY6JYrCNr7keZbiSEkB5leIKA7TwzhlS4kEsHAHSAjUDKCWk8EMxRIAs0eF6MK59ABweg9zRN/3cLZL3KV9xCOAuTCAG0UmgwoRawZzjEUMqmTRAmwzYyMWZz/Kir435qtqUIAjyFkhGMwNYKG4RDOYOI4Aq3kGY3+b5Rx3+X/buxrYqqo7/i+wOmSbM4tzyZqJrUCBlo8NSgERiiCvkuk2GtiXgQV0MIurEWWyTNstsBHYgFkRXclKjBoTyHQLK4gTtkasoPKpFHUOCcnQRpCl1Q1ou/M/5557zz3v3I/33r1t3+v/JU3fu1/v3vPO7/z+H7/zP1rHIIARwPhKk9IE9DMRa9unB0z3SB9gc/cCVFjJXJE4XglV29fCxZAAk7pEoaaPD2Buxg7oPD4+TDYM0OSDBfy+XgzmV93XC2DY6RvPlDvLvhr1fan5YEK/J8+Rwl30m1AWsgVQHuIALNmHc5+/DlCXuOTiBpb4PqvkzKxGMqg4vDuQ2QfD71t8Yjbcm9+gzGPz/xFylsFIi5isRVTXZtZrIgbWQmT6vnUtV4PUK9rdyqXv03V88iiv7bjf2Qerbof3lq6Ak8vfg6XPs9llthYx3PmOnlHRJcpbCKVDDL5f1FX66S6DOS03jqAgh0+Qw2/SJQLIlGhmsxWhrvEMLGLmpNTxcQZw+SQZmIioVmesWLn2OEAVTm0BPgcrvIkoAhpowt2b/12uS9SnvkQS5CAfjI8QBLCoAWZdz+2HoVawAjbZMqEMAcbD/GutWdNikmOqAHOmkzhTTHiPSNlENAdVKIooGJgAFhPAdD3irM2bYdyf8y19n8F34eArgnqtHgf/lex9ps6sA8yQRzOcz30enHDJS3ZkEqY3fx/OfytmUVPKg3mseZOrTqfJsk8lyIHn4/GeJqK1X187rD+1JzeJI1rAzssTy5brE4PFxGC5A7D09IjZAoC4AUwAI4CFCtcRYPybibSIPu2jmohB9emjNRFNwQ61rJqfthBjgVZQgokRR+zqgI1zrrSe0rseoowY2kEIY31Gb40hr5fIi9u46z4G11FMr4PGzTBxX58YTGOwvgcwL+mTxFcl1LMyAIePFcAel5jY0R2q9RAlwHCCZuIzXvUZk4HvjNBqBFPcg6m2IjGeaBsCWFYDDCOI9VDUVA0nZm+AkXuw8Cjv8lyhYaqHyAEma4TsWebK1TmjuQ/APML4OhMQwAhgdp/o2yaiD4NhZ68vgiZmtmHieOvIPa7ioqZ6iAgwlEoNPVajTJ/R4RHEYDo7JhtaBDACWCQAw4uEKRvgPd3DkEey6xyafTBZWxB1j/VWxV4vpYheD1ECTGgRsZa96eWtMZQl6/W6j2qRH7wiAcwCGGkR3VrEoHWasdmC9Iim2ojmjmzSDvrVQFSvotdDVD+bruHoDq8L1An6aRqTn0TWffSq9+iB4n6xmXywDH2wzBnMXPrMczqJ7JZ6JM/aLmYgq5WlRNUoWQ8xYx/MBItQdRT98ZSrjEcAy1KAqWW2bZPMLiSKkitzPUQpi0o3ishLFGyvSqr7iKXanCWWyESUwwkBLAaAmVgt/JT7EHmwRAISrOxilVLZSVy/zVoKic/KdKvkrXqITu14a0p/KnkwS6zMviSp7iPlwUw1SyhMzwca0xrNuD3MdBUTmMIDzNtsylWTyeuJc/V5icEIYKGCDbkKgLgBTwAjgBHADC0Q1YBCALMaV+ayTElnqYxXj5HTVchENOMzqg4aN8PEfX0CmAIwvbFVH0wFkjofjABGALOjuIZKyQQwD4Dpol8CmDlKFjcDZPv1CWAEMPLByAeLP3GZSnVf3SzUtYgUpo//98oWH4/WaLZGL32dZl2TiIepGkOv93IwDK9HDEUgdFCWtgCZiAEmol+yWY8uqn1AZ7VsGXGz3efpa/dPACOAheIGGiD8m4lqcgR0o3RKtxGDeTcqAVK0DTEYMRgxGEUR449KZcJgpqgh+WCUNyMGU0YuAlh6PkZfCyr0tfshEzECE9HEYPo28kn6J4AJYAQw8sHIB8s+H4wYjHww8sFi9MEIYAQwAhgBLJR5iAeRD5meD0laRKvdvLSIpvWa8ZSg2oimY0L3ZjowZ1qAghwU5AjVmYnB0mQwtsBlt+nU/tagUefByAcjH4x8MA8fLOwSRuoqlkFzwjIdsFauesg4hOZ1Xxbb2TjZ1dUJnZ2d/KP839XVBd1sWzf7z1+XrePZ5y48lv21X7xoX/uStf+ZHTtc35fp/QfRZK5en0xEg4nYVwFW9MJfk/rpzGefhZcWLDD2X7990558EprvuMN43gsFBbD9uecIYIYaG14DBanpA4bQdJYw6mkG+83qOtdT/GHiRJAguvPgwZT2Td22DV5euBCWsPM4ueUB+98NjeVlQACLLmpKDNZPGWxKYyPsX7TIOOz85dpr4S87dxKDEYN501KqNn0YBsNvU2sj9jSD3bl4YZAr497P/DKMYck/7o9xX435X9Z79NWQubq7u7jfhtt/vXo1AYzX+pdrXgc3O5mIEZiIKsCwQTEXFnbSZaqA14//2YOroHCoWG1Zfc2cNQuKCguNT/fuu+/CDTfckLSP4QmOHT0Co0vHCsCxz/iHr072puqblbB7zwvEYASw3mOw3gDYr9esdvtZTzwBEmADlrrbomsLwDtvvwPDhg8Dfd/lxwCOHD4Eo8eMg8/ezZwv5fXxxi6YfxsBLNMBUTYp+WAp+GC9ymA/exAKrx+aEoOdPHkSRowYYZ+DJIVZT2SrI4fegJKx4/l7sc1hsm/fejPs27ePGIwYrG8zmA7ITGz6Bx54AO768Y+9Hxj3BPhc0vdCnwtzZmgeot+FOTJnXxfU/fKXBLCofDBao1n0WVWL6LVOszwO9+vvTZ+9tvmjxLy3trYWbigqSonB3nrrLRg1ahSozIUXQD/r8OsHoHR8mc1cnSxUjyyGbPadWytg9+7d6dwmnaO1AJmIEZmIKlupbSyjjpna9Pfddx+sX68sR8m+5A8BPtibb74Jo0aPhoGaf9bxSDccef1VKGEA+8JPB7i6xNl1nVA1twKam5vJRCQTse+YiD0BsBHDhycz2M03Q5GB2fDAY8eOwaiSUn4ONwuVaOGhA/uh5BuTXT6YZLF5ldNh//79BDACWPQAM8mk8Fv0cLweRUwVYCbtovo0OuPV1NRA9fLl7geWPhcHj5PjUnNdwrdyfC7b17JyXuIzy38xdHGfjGkRa3/1K3j11VcJYASwngGYqXx2FACTd68mrOU2HWD33HMPlDBzT3/NqKiAYcOGuTZLn0uG4nEnspP4L5jsUMs/YEzZTfZnuR39sHm3TIWDr7mlV5mauN6/lNiTq9cnH8z65U0LoZuApfpUaqI5HQbTO50KNBPANm3a5DoFfbDpM2bAcGY66rmui5udUPzganeu69yGLjjc8ncYPfEmuHbFQNc1T625BFWzy+HgG28QgxGDZQeDBY3epv3qErW4f/ndd0PpmDFJh0676SYoLi7m2zECiOwlVRmHXj8IpeMmWL6XYC7JZIdeeQlKyip45FCNIOLn+bdMJoBFFaanCZeiz8bFYBIROiPpEzzxOD8Gq162DGpYJNFPW+joC9GfErktPc8l9IaY+xIaRfS55Hlyrlgd0yISg5EW0ZcYUrXpexNgYXyw6jvvhDETJiQ985SpU3koXio0OAC5rwVw+LUWKP36JDt6iMdIX+vI/hdh1KSbLQYT+S/5WjCHGCzV/kNi3wA7TVXJy0Oj8MH8GMwELK/jEWCPMJ9LfaEPVj55MoxmofhBy9wP2P57lkx+7RUo+Xo5fLHGnetq+20nnH77KBQWj4WHtp20Tzz9yZdgw8IvkonIWoQAFgCYVBuopwEW5Jfp91+9eDGL+pUlnVY2aRKUMFV8p0VByFxSW3j4wMtQMmGqzVq4PX9QHgxkMY/mJx6FQqY3HPyKyHd9OnkKfHjrrVC8YBHU3f0j2MxmPKuvVNuTjhetR1FEqxfJsLvaqeJksLAAM/lqpnNRStXS0iI0hUqOi/tg6I8x5F05ZAhc8+Uvw6BfPATdbDrKYDax8tMPPoALFy7Ap+y8C+zC13/r27B3ZgJ+svwuAlgUUUTSIjr9KI7aiEFACtqvpwK8js/Ly4P2/7IAhqKKx1B8Kc91CZ3hFYMGwLGn/wgFKx+AqysroWvgIBjQeRnONzVxkJ1nIGtjX/CPH/4Q1j/+eNCt0f4QLUAMlgUMpvpqCCT1Javu8e13WdlkdgD6WYdZKL500kz4yv0i17V83AmY9Ww1TPjg35A/sQwO/eD7MP6pp+HiwQNw9u23OcDOs+POjh8P1ZQHoxnNfgNIOj6AzmB9xUTUgyEqyFSAffwJC7kr87sOvfw3KCmfaTPY564YCP8p+ip0sjJtfgz28cCBsFSWd1MGoEym2wQN9un8XtlwP8RgOcRg+/butepqiDyXmgNDIF7HSgt8fvZsONfWBldddZXRB/uIMeFHDGA1ly6RDxaFD0aJZtGP+nKQQzKYzlz4WWWwj9ov2xFD9LkON++G0VNu4dswgviFwQOh7Y75cO65P8HgAU7oHgMcHawNzmE7sO3nx46F+8hEJBOxt01ENFFUVbyfQj5dE0i9pgSYqdq57oOd+c1lBrAmGDVlDhT+PJ831e3DP4RZ+bug8J5FcIXSeP9DYLG//zBw4V/r/Pmw5amniMGIwbwhlk6HTtUH6w2AeSwlAAiwsxcuubSFRznAEq5GGnLFADi3cAEcYSw2iO3BQtqX2Ln4h+DCV/7vHqUwPWkR/d3muACG34qsIsW4Omt5sVg696MDGL9bNQvVFsDtk5mqw65Jz2Pzok69+prIZFUlZdPg+IFmGMVmPA86ehT+y87tLC2Fd0aOhDHl0+Glv/2VSmcTwPonwLye2gt4XsenC3j/Vnf20vVFW1AU0eoTYYMcPc1get7Lr4N7mY+mcwgA0Q/QprQBAayPA4wYw9wC2TJAEMA8AOa1hFFPMxgBLMsBRlpE5weMqzZiWJDQcbnXAsRgxGChenW2mGR9LahDACOAEcAMLRDVgEIAI4ARwAhg0U3h9jMhVB+MghzulopqRO9rJlzc90MMRgxGDEYMRgwWhAJimJ5JHKfKeMRgIRlM5r+k6ejSIi4qgMqhS2AXOwhrY9S2T4fudTPs32Lf/XlQoSyMsmJvNzi798H9eRWgrpuSaDgFO753jTVdInk/XhiPaVqMS8ri/p0wq6MO5lx5gF8Lkq6/E+Z2rwN5R/r9wIq9rvs1daJPPtkNDw9JuO7TfZ75PmFFAzQcXwJLsHG0l/MMPTOA9sYETQJYAMC8ZjWrAGuvbYHiU02A/R3FvtPba6ECRKflnZm976grswDzPmytHAqtKxFk6nvZ+8S2YzUdsHEOLsItAKQCBN7fygDdCis5aJIBtj7RAKeaFoNY0dl9fvL9ALtcJQxtXekLMgGwF5OBaj2n/j1GRsX7ZkspbbHvzUFcrjIwASwCgLW0FNidxqWmVzrUNSZ1tleH23c/5K0uhFN7ljGQGAAGCELeUxmodYDthOKG49Ba1GSxpHJ+0P34WFkmgDFoJt2HHAgIYKIxCWARAKydmYWSNRoZg8kZyCozmDoc7l8KWyxTT+3d+6Am7zn4VvdGm6HCMxiy3VzYabOeAjAE7s65nKlSZ4xkBuP8yBh651xkY/dAQAAjgLnGa11N71fwxjQfTPo13AdjjIYmGhvebQBlBjC3jwawgrlZ0qdKZjAE4/X2d//LNjGdbdcJgB14GPKkc+gyK5OpzMxgOsD0+2R3qvqD/dFEJC2i05lMWkS5XrPpP56J58g1m+Xn8vO1kGAhjxMj1sPIkyugY800o/F1etvtsBwegecXfk3b3wyrhjRBZccamAbqezzsNGy7nS3E98jzIE7zOlZur4Qmea3mVTCkqTL5fk5vA3HJhaDfiXNj+n2IPc2rhkBTZQesmWbe73qwUN/jY6dm4S4yEQ0moleSWS2v7TWjGS+Hx3G/bAvAUsupj9QHU0y95CiiExARJmgVlCxpFcEJLx/Mh1lknzYzGLLnWivAQyYizQfzGQFVEzFVgEmTUETtLIAVLOK+VZgo4vYqGXLHs0NEEV2BD7OJOIPfiQydOyZl8v1Yx6RhIspriZQEAYwAFgPAJKDQ95IvfK8WC808D6aF6bE7s+DC2mIEpvCxnDyYdiyyHU+NOXkwHnxRElOJhgYo2Q5QbQifuxksjTyYCtz+6INRXUTRhdJlMAkwFVCmwjepR+2iWQDOa0yh+/F36KJqH/LBMvTBcgtgHmoMFrLZfGIHLCvGxHe4V1QdNNsHCAIYASwUYggw6TEeASwNgOmsZaqN2EUDEO4AAAToSURBVML8sBIlB+SOwpnUGe4f0N2hvXR+joZwd00eJDY513DyT6bv0hPZyfkrl86Q+U6zmdZynEFD6aV7LLOUK/7+p3O/uQpgAlhMAGsvKIDjrUXQZKl6MwdYcqBDdk/eiS/tgu6Nc6xNqsYxDMC8r40XxKDIhou3wcn3RtrPY0coPXSPCLADDw+xNZnixkzaS8cH7g0xbtwmKAEscoC9z/JgjTD94UXwz8p6KGoS0bvYAGZF5jbs+B4UG2upZwowBEU9FOxYDGfmbbWfR4blvXSPZa2Pwbx7843CXlOnJgYLsNRzoYGkkiMoD+ZrIrIOX9d4hofpceSvt0S3cQFM6h0dtb7+Q2UIMARwfRHsYLMB2p6ZZz+Pk/cy6x6/8thsGPnezwOnwci7zYX+Q3kwn0FChulVcOHhJk2iH8CwwzeeKRd5MJdyQhXLRuODoZ9V/U+hd3Tmj5kAZvCx4KfMfZJiYm8NoRwk6spY2qDtGWW6ifMMJt0jAuze/AaDkNn8I+QswEiL6PzgUlcYpEnEM1QNovNe6AQ/vPFGS5+o6gb99IUB5kGSHtE5HvWMfnpHt1ZRnhf2XnTdY9DzOLrH6wLvK+iZc2M/+WCaD5YRg/GJkEugHBX1irJDzFBuVSYspsNgHoGIOH0w63n0ychiJrKj0kcfU9c9kg8mOhYBLEKAyfld5WcaHamUDYAC2GrPCI4QYOz+44oiqvPVbBPONnuLoN4109qte6QoIgHMZYPIDoQ5LfUV3gebbivLzzQ6ky4d8e4u+ExCTrk35LU0sW2oPJhyTuR5sEQCEoy6qqxSCM79yFD7XoAKb90j5cEIYBEDjAU1rBdpEXO3iI2XZ+gVpCETUTER5YqS6TFYpgDz1gE2WCzi5/bnahQu1Q7d144ngPUZgLm7BgHGP4qYLe1DAPMBWFD5bDlFJcw6zdF3iAB9oh4BVGofuvSBIWoiYhNFf//9Y0AhgMUAMLykDrroO6jfDGJ1Kr94QDn7+FTxWl4DUSg/2pQajbnBGGQiah3a/2d19kbfQc0jqBpF1BlMBY4KIFNQo1cBFqrGhpjQ6V06rn8wTNyAJAZLgcGyBmCyFodPnQ05YDl1DYnB1BaIakAngGU1wPzrELp8LVOeDesiri1Wymx7gyyqDhc3Y/S16+eRFtH9k/it04xHqnpFvR6i3+ewpnD440LUIVQuhvULsVajXaMRayQmAHbx2ov0iqsFiMFCMJhflV/5wwRFEqNngBBl0tReo/plvNLUJUtNH65rRX///cPHI4DlIMD4HLHtVS7Tzy7zNutFvjJLDV/uiIrYxG1SEsCyGmCGeV6Wr4V18dXah7LGRtLaYOz51XW64u5w/e36BLCsBVj/MLGyHZAEMAJYKCeMfLD00hgEMAIYAczQAlENKASwNAGm1vDAS/R8FJFMxGwo80YAI4ARgxGD9Zya26RFNOXBiMHS80myPWiR6v0TgxGDEYMRgxGDBaEgKqc81RGajhct4FkygLSI7i4itYhyTWbcG2Z9ZtNazao2MQggtD83W4BMRA8TMah8Nvlg5IOpLUBFbwIGSL1sGwGM0gBRpAGIwWJiMD03Rj5S/2Q8AhgBLJTzQwNEegMEAYwARgCjMH3Ph+kz9cHIRBRFdcK+cpUhicGIwUJhIFcBEHcejwBGACOAxWgi/h//5NkCTEdNKwAAAABJRU5ErkJggg==;" vertex="1" parent="1">
          <mxGeometry x="1100" y="-150" width="216" height="680" as="geometry" />
        </mxCell>
        <mxCell id="OMwSk2iTK4QeCkCI8MPM-2" value="&lt;div&gt;yb_code_reporting&lt;/div&gt;&lt;div&gt;&lt;br&gt;&lt;/div&gt;" style="rounded=0;whiteSpace=wrap;html=1;" vertex="1" parent="1">
          <mxGeometry x="160" y="-50" width="120" height="120" as="geometry" />
        </mxCell>
      </root>
    </mxGraphModel>
  </diagram>
</mxfile>
